<svg xmlns="http://www.w3.org/2000/svg" width="54.923" height="66.349" viewBox="0 0 54.923 66.349">
  <g id="logo_main" transform="translate(-1367.198 -384.665)">
    <path id="Path_8910" data-name="Path 8910" d="M1410.546,385.034c9.245,2.561,12.446,12.875,11.379,21.411-.712,5.69-3.912,11.736-9.6,12.448-9.247,1.067-22.761-3.2-25.607,3.912-3.557,9.6-8.535,16.715-18.849,18.493.711-15.293-4.268-32.364,5.335-44.811,6.757-8.891,20.272-11.025,31.8-11.822a40.425,40.425,0,0,1,5.547.369m-4.363,17.291c3.294-.149,4.361-4.772,2.583-5.839-6.4-4.979-14.937-.711-20.983,2.845-1.423.711-.711,4.623-1.067,7.113a65.756,65.756,0,0,1,10.268-3.614,59.689,59.689,0,0,1,9.2-.505" fill="#5e55a5"/>
    <path id="Path_8911" data-name="Path 8911" d="M1400.693,706.041a3.593,3.593,0,0,1,.768,1.309,1.86,1.86,0,0,1,.034,1.182c.912.4,1.364.592,2.261.973-.439.374-.665.554-1.133.9-.825-.39-1.24-.588-2.078-.992a13.621,13.621,0,0,1-2.074,1.159l1.333,1.508a13.177,13.177,0,0,1-1.34.551l-4.792-5.42.064-.023a13.027,13.027,0,0,0,1.276-.528,13.872,13.872,0,0,0,2.678-1.573,1.31,1.31,0,0,1,.886-.225,2.662,2.662,0,0,1,1.081.34,3.815,3.815,0,0,1,1.037.843m-4.619,1.818,1.334,1.508a13.738,13.738,0,0,0,2.37-1.358.449.449,0,0,0,.165-.475,1.244,1.244,0,0,0-.323-.64,1.423,1.423,0,0,0-.618-.425.607.607,0,0,0-.556.032,13.736,13.736,0,0,1-2.371,1.357" transform="translate(-21.63 -261.615)" fill="#5e55a5"/>
    <path id="Path_8912" data-name="Path 8912" d="M1429.547,677.415a31.766,31.766,0,0,1-2.774,3.154l.977,1.105a31.84,31.84,0,0,0,2.774-3.154l.916,1.037a31.746,31.746,0,0,1-2.774,3.154l.977,1.1a31.644,31.644,0,0,0,2.774-3.154l.963,1.089a30.8,30.8,0,0,1-3.766,4.094l-4.792-5.42a30.783,30.783,0,0,0,3.766-4.094l.959,1.085" transform="translate(-47.082 -238.309)" fill="#5e55a5"/>
    <path id="Path_8913" data-name="Path 8913" d="M1451.008,651.452a.973.973,0,0,1,.744-.385,1.947,1.947,0,0,1,1,.245,3.481,3.481,0,0,1,1.009.813,4.115,4.115,0,0,1,.733,1.158,3.076,3.076,0,0,1,.255,1.17,1.442,1.442,0,0,1-.279.912c-.762.979-1.132,1.48-1.886,2.468l1.333,1.508c-.338.443-.507.664-.849,1.1l-4.792-5.42.037-.048c.327-.419.488-.63.811-1.053.754-.988,1.125-1.489,1.886-2.468m2.164,3.01a.672.672,0,0,0,.078-.576,1.508,1.508,0,0,0-.356-.679,1.153,1.153,0,0,0-.585-.385.42.42,0,0,0-.47.132c-.666.862-.992,1.3-1.654,2.168l1.334,1.509c.661-.867.988-1.305,1.654-2.168" transform="translate(-66.243 -217.665)" fill="#5e55a5"/>
    <path id="Path_8914" data-name="Path 8914" d="M1481.5,627.714c.386-.389.583-.578.989-.944l4.792,5.42c-.406.366-.6.555-.989.944l-4.792-5.42" transform="translate(-93.389 -197.815)" fill="#5e55a5"/>
    <path id="Path_8915" data-name="Path 8915" d="M1494.5,607.5l1.066,1.206a13.219,13.219,0,0,0-2.256,1.014l3.726,4.214c-.493.269-.731.414-1.193.718l-3.726-4.214a15.769,15.769,0,0,0-1.889,1.429l-1.066-1.206a23.742,23.742,0,0,1,5.338-3.161" transform="translate(-99.65 -182.074)" fill="#5e55a5"/>
  </g>
</svg>
