<svg xmlns="http://www.w3.org/2000/svg" width="117.094" height="117.094" viewBox="0 0 117.094 117.094">
  <g id="menu-logo" transform="translate(-30.916 -31.277)">
    <path id="Path_8836" data-name="Path 8836" d="M89.463,148.371A58.547,58.547,0,1,1,148.01,89.825,58.613,58.613,0,0,1,89.463,148.371Zm0-113.7a55.15,55.15,0,1,0,55.15,55.151A55.213,55.213,0,0,0,89.463,34.674Z" transform="translate(0)" fill="#d95427"/>
    <path id="Path_8837" data-name="Path 8837" d="M132.777,171.093A37.953,37.953,0,1,1,170.73,133.14,38,38,0,0,1,132.777,171.093Zm0-72.508a34.556,34.556,0,1,0,34.556,34.556A34.595,34.595,0,0,0,132.777,98.584Z" transform="translate(-43.314 -43.315)" fill="#d95427"/>
    <g id="Group_5848" data-name="Group 5848" transform="translate(58.52 36.692)">
      <path id="Path_8838" data-name="Path 8838" d="M125.869,73.534l-3.728-9.715,2.755-1.564,7.152,12.6-1.873,1.062-5.13-9.039,3.761,9.816-1.873,1.063L120.4,69.686l5.058,8.913-1.729.981-7.153-12.6,2.755-1.563Z" transform="translate(-116.577 -57.687)" fill="#d95427"/>
      <path id="Path_8839" data-name="Path 8839" d="M181.4,54.7l3.091-.465.308,2.047-3.091.465.631,4.2,3.889-.585.308,2.047-6.141.924L178.236,49l6.141-.923.308,2.047-3.889.585Z" transform="translate(-158.367 -48.08)" fill="#d95427"/>
      <path id="Path_8840" data-name="Path 8840" d="M228.549,52.835l-1.942,10.313-2.014-.379,2.681-14.24,2.807.528.694,8.956,1.6-8.523,1.994.375-2.681,14.24-2.3-.433Z" transform="translate(-189.785 -48.385)" fill="#d95427"/>
      <path id="Path_8841" data-name="Path 8841" d="M277.788,66.791l-5.68,9.627c-.526.892-.323,1.444.3,1.812s1.206.278,1.731-.613l5.68-9.628,1.854,1.094-5.606,9.5c-1.178,2-2.85,2.549-4.775,1.413s-2.251-2.866-1.073-4.863l5.606-9.5Z" transform="translate(-220.244 -59.977)" fill="#d95427"/>
    </g>
    <g id="Group_5849" data-name="Group 5849" transform="translate(60.081 121.87)">
      <path id="Path_8842" data-name="Path 8842" d="M127.657,324.461l6.119-8.414,2.811,1.459-6.677,12.859-1.91-.992,4.789-9.222-6.185,8.5-1.911-.992,3.216-9.876-4.722,9.093-1.764-.916L128.1,313.1l2.811,1.459Z" transform="translate(-121.422 -312.875)" fill="#d95427"/>
      <path id="Path_8843" data-name="Path 8843" d="M183.8,338.918l3.084.511-.338,2.043-3.085-.511-.693,4.187,3.881.643-.338,2.042-6.128-1.015,2.368-14.3,6.128,1.015-.338,2.043-3.881-.643Z" transform="translate(-161.25 -326.038)" fill="#d95427"/>
      <path id="Path_8844" data-name="Path 8844" d="M227.329,335.241l2.323,10.236-2,.453L224.446,331.8l2.786-.633,4.2,7.942-1.92-8.46,1.979-.449,3.208,14.133-2.282.518Z" transform="translate(-191.247 -324.465)" fill="#d95427"/>
      <path id="Path_8845" data-name="Path 8845" d="M266.714,314.629l5.512,9.724c.51.9,1.091,1,1.72.643s.843-.906.332-1.807l-5.512-9.723,1.873-1.062,5.441,9.6c1.143,2.017.788,3.741-1.157,4.843s-3.606.521-4.75-1.5l-5.441-9.6Z" transform="translate(-218.551 -312.404)" fill="#d95427"/>
    </g>
    <path id="Path_8846" data-name="Path 8846" d="M180.024,190.566h-2a23.246,23.246,0,0,0-4.23-12.113c-6.211-.279-7.909-.264-8.395-.263-.983,0-5.525.346-6.8,1.672a11.559,11.559,0,0,1-1.822,1.228,8.286,8.286,0,0,1-4.73.542s-7.742-1.243-10.364-1.754c-.3-.059-.423-.262-.4-.35.059-.184.294-.17.412-.164,2.886.131,11.221.655,11.468.639.278-.023.7.138.839-.382.153-.566-.651-.569-.651-.569s-8.761-.375-11.673-.722c-.306-.037-.4-.195-.4-.286,0-.261.4-.257.4-.257s10.888.046,11.542.046c.8,0,.823-.383.823-.383a.649.649,0,0,1,0-.312s-.02-.383-.823-.383c-.654,0-11.542.046-11.542.046s-.4,0-.4-.257c0-.092.089-.25.4-.286,2.912-.348,11.673-.722,11.673-.722s.8,0,.651-.569c-.14-.52-.561-.359-.839-.382-.246-.016-8.581.508-11.468.639-.118,0-.352.02-.412-.165-.028-.087.092-.29.4-.349,2.622-.512,10.364-1.755,10.364-1.755a8.283,8.283,0,0,1,4.73.542,11.583,11.583,0,0,1,1.822,1.228c1.277,1.326,5.818,1.667,6.8,1.672.429,0,2.041-.03,6.578-.206a23.318,23.318,0,0,0-15.638-7.589,1.71,1.71,0,1,0-3.015-.019,23.39,23.39,0,0,0-21.3,17.581,12.052,12.052,0,0,0,1.2.16c6.164.3,8.932.368,10.188.383a17.528,17.528,0,0,1,2.842-1.762c10.636-3.724,20.151.16,21.547,2.275,1.344,2.038-.032,2.54-.032,2.54s-26.517-1.2-34.545-.868a17.571,17.571,0,0,0-1.749.247q-.085.708-.128,1.428h-1.7a2.864,2.864,0,1,0,0,5.729h50.38a2.864,2.864,0,1,0,0-5.729Z" transform="translate(-64.97 -91.362)" fill="#d95427"/>
    <g id="Group_5850" data-name="Group 5850" transform="translate(38.045 83.878)">
      <path id="Path_8847" data-name="Path 8847" d="M59.309,200.772c.079-.049.392-.27.392-.27L63.37,197s.171-.333-.4-.4c-.589-.069-2.137.506-4.24,3.555l-.366.372c-.01-.208-.015-.355-.016-.418,0-.46-.092-1.1.511-1.467a2.563,2.563,0,0,0,.291-3.287c-1.11-2.11-2.028.377-2.091.638a2.381,2.381,0,0,0,.485,2.662s.457.2.431,1.4c0,.153-.012.365-.024.621-.3-.271-.5-.448-.531-.479a1.222,1.222,0,0,1-.345-.873,2.685,2.685,0,0,0-.092-.48,4.637,4.637,0,0,0-1.116-1.292L54.021,196.1c-.085-.011-.072.091-.072.091s1.794,1.747,1.836,1.794.149.116.063.2-.183-.022-.183-.022l-1.969-1.75c-.092-.011-.072.1-.072.1s1.676,1.726,1.807,1.831.09.182.09.182c-.1.1-.2-.024-.2-.024l-1.889-1.791c-.1-.046-.082.09-.082.09s1.77,1.917,1.8,1.94.131.06.04.15a.134.134,0,0,1-.19-.01l-1.875-1.85c-.09-.036-.086.086-.086.086l1.877,2.3a1.987,1.987,0,0,0,1.158.761,1.745,1.745,0,0,1,1.065.338,4.478,4.478,0,0,1,.669.575c-1.383,1.392-3.9,3.9-4.587,4.414a1.222,1.222,0,0,0,.929.9s2.146-2.566,3.718-4.25c-.115,1.834-.278,4.068-.278,4.068a.925.925,0,0,0,1.091,0s-.156-2.678-.253-4.5c1.643,1.73,4.1,4.643,4.1,4.643a1.1,1.1,0,0,0,.871-.862s-2.968-2.624-4.72-4.182A4.469,4.469,0,0,1,59.309,200.772Z" transform="translate(-53.038 -194.508)" fill="#d95427"/>
      <path id="Path_8848" data-name="Path 8848" d="M348.775,200.772c.079-.049.392-.27.392-.27L352.836,197s.171-.333-.4-.4c-.589-.069-2.137.506-4.24,3.555l-.366.372c-.01-.208-.016-.355-.016-.418,0-.46-.092-1.1.511-1.467a2.563,2.563,0,0,0,.291-3.287c-1.11-2.11-2.028.377-2.091.638a2.381,2.381,0,0,0,.485,2.662s.457.2.431,1.4c0,.153-.012.365-.024.621-.3-.271-.5-.448-.531-.479a1.222,1.222,0,0,1-.345-.873,2.681,2.681,0,0,0-.092-.48,4.637,4.637,0,0,0-1.116-1.292l-1.846-1.453c-.085-.011-.072.091-.072.091s1.794,1.747,1.836,1.794.149.116.063.2-.183-.022-.183-.022l-1.969-1.75c-.092-.011-.072.1-.072.1s1.676,1.726,1.807,1.831.09.182.09.182c-.1.1-.2-.024-.2-.024l-1.889-1.791c-.1-.046-.083.09-.083.09s1.77,1.917,1.8,1.94.131.06.04.15a.135.135,0,0,1-.19-.01l-1.875-1.85c-.09-.036-.086.086-.086.086l1.877,2.3a1.986,1.986,0,0,0,1.157.761,1.746,1.746,0,0,1,1.065.338,4.5,4.5,0,0,1,.669.575c-1.383,1.392-3.9,3.9-4.587,4.414a1.223,1.223,0,0,0,.929.9s2.146-2.566,3.718-4.25c-.115,1.834-.279,4.068-.279,4.068a.925.925,0,0,0,1.092,0s-.156-2.678-.253-4.5c1.643,1.73,4.1,4.643,4.1,4.643a1.105,1.105,0,0,0,.871-.862s-2.968-2.624-4.72-4.182A4.489,4.489,0,0,1,348.775,200.772Z" transform="translate(-249.224 -194.508)" fill="#d95427"/>
    </g>
  </g>
</svg>
