<svg xmlns="http://www.w3.org/2000/svg" width="21.762" height="19.393" viewBox="0 0 21.762 19.393">
  <g id="calendar" transform="translate(0 -20.9)" opacity="0.5">
    <g id="Group_5892" data-name="Group 5892" transform="translate(0 20.9)">
      <g id="Group_5891" data-name="Group 5891">
        <path id="Path_8877" data-name="Path 8877" d="M19.506,22.55H18.14V21.467a.567.567,0,1,0-1.134,0V22.55H11.451V21.467a.567.567,0,1,0-1.134,0V22.55H4.705V21.467a.567.567,0,1,0-1.134,0V22.55H2.262A2.294,2.294,0,0,0,0,24.845v13.18a2.262,2.262,0,0,0,2.262,2.268H19.5a2.261,2.261,0,0,0,2.262-2.262V24.845A2.285,2.285,0,0,0,19.506,22.55Zm1.128,15.476a1.131,1.131,0,0,1-1.122,1.134H2.262a1.127,1.127,0,0,1-1.128-1.128V24.845a1.153,1.153,0,0,1,1.128-1.162H3.571v.822a.567.567,0,0,0,1.134,0v-.822h5.612v.822a.567.567,0,0,0,1.134,0v-.822h5.555v.822a.567.567,0,0,0,1.134,0v-.822h1.366a1.153,1.153,0,0,1,1.128,1.162Z" transform="translate(0 -20.9)" fill="#fff"/>
      </g>
    </g>
    <g id="Group_5894" data-name="Group 5894" transform="translate(7.834 27.368)">
      <g id="Group_5893" data-name="Group 5893" transform="translate(0 0)">
        <path id="Path_8878" data-name="Path 8878" d="M139.759,135h-.992a.567.567,0,0,0,0,1.134h.992a.567.567,0,0,0,0-1.134Z" transform="translate(-138.2 -135)" fill="#fff"/>
      </g>
    </g>
    <g id="Group_5896" data-name="Group 5896" transform="translate(11.78 27.368)">
      <g id="Group_5895" data-name="Group 5895" transform="translate(0 0)">
        <path id="Path_8879" data-name="Path 8879" d="M209.359,135h-.992a.567.567,0,1,0,0,1.134h.992a.567.567,0,0,0,0-1.134Z" transform="translate(-207.8 -135)" fill="#fff"/>
      </g>
    </g>
    <g id="Group_5898" data-name="Group 5898" transform="translate(15.759 27.368)">
      <g id="Group_5897" data-name="Group 5897" transform="translate(0 0)">
        <path id="Path_8880" data-name="Path 8880" d="M279.559,135h-.992a.567.567,0,0,0,0,1.134h.992a.567.567,0,1,0,0-1.134Z" transform="translate(-278 -135)" fill="#fff"/>
      </g>
    </g>
    <g id="Group_5900" data-name="Group 5900" transform="translate(7.834 31.279)">
      <g id="Group_5899" data-name="Group 5899">
        <path id="Path_8881" data-name="Path 8881" d="M139.759,204h-.992a.567.567,0,0,0,0,1.134h.992a.567.567,0,0,0,0-1.134Z" transform="translate(-138.2 -204)" fill="#fff"/>
      </g>
    </g>
    <g id="Group_5902" data-name="Group 5902" transform="translate(3.855 31.279)">
      <g id="Group_5901" data-name="Group 5901">
        <path id="Path_8882" data-name="Path 8882" d="M69.565,204h-1a.567.567,0,1,0,0,1.134h.992A.567.567,0,0,0,69.565,204Z" transform="translate(-68 -204)" fill="#fff"/>
      </g>
    </g>
    <g id="Group_5904" data-name="Group 5904" transform="translate(11.78 31.279)">
      <g id="Group_5903" data-name="Group 5903">
        <path id="Path_8883" data-name="Path 8883" d="M209.359,204h-.992a.567.567,0,1,0,0,1.134h.992a.567.567,0,0,0,0-1.134Z" transform="translate(-207.8 -204)" fill="#fff"/>
      </g>
    </g>
    <g id="Group_5906" data-name="Group 5906" transform="translate(15.759 31.279)">
      <g id="Group_5905" data-name="Group 5905">
        <path id="Path_8884" data-name="Path 8884" d="M279.559,204h-.992a.567.567,0,0,0,0,1.134h.992a.567.567,0,1,0,0-1.134Z" transform="translate(-278 -204)" fill="#fff"/>
      </g>
    </g>
    <g id="Group_5908" data-name="Group 5908" transform="translate(7.834 35.134)">
      <g id="Group_5907" data-name="Group 5907" transform="translate(0 0)">
        <path id="Path_8885" data-name="Path 8885" d="M139.759,272h-.992a.567.567,0,0,0,0,1.134h.992a.567.567,0,0,0,0-1.134Z" transform="translate(-138.2 -272)" fill="#fff"/>
      </g>
    </g>
    <g id="Group_5910" data-name="Group 5910" transform="translate(3.855 35.134)">
      <g id="Group_5909" data-name="Group 5909" transform="translate(0 0)">
        <path id="Path_8886" data-name="Path 8886" d="M69.565,272h-1a.567.567,0,1,0,0,1.134h.992A.567.567,0,0,0,69.565,272Z" transform="translate(-68 -272)" fill="#fff"/>
      </g>
    </g>
    <g id="Group_5912" data-name="Group 5912" transform="translate(11.78 35.134)">
      <g id="Group_5911" data-name="Group 5911" transform="translate(0 0)">
        <path id="Path_8887" data-name="Path 8887" d="M209.359,272h-.992a.567.567,0,1,0,0,1.134h.992a.567.567,0,0,0,0-1.134Z" transform="translate(-207.8 -272)" fill="#fff"/>
      </g>
    </g>
  </g>
</svg>
