<svg xmlns="http://www.w3.org/2000/svg" width="21.762" height="21.762" viewBox="0 0 21.762 21.762">
  <g id="clock" opacity="0.5">
    <g id="Group_5889" data-name="Group 5889">
      <g id="Group_5888" data-name="Group 5888">
        <path id="Path_8868" data-name="Path 8868" d="M176.473,41.183a.474.474,0,0,0,.473-.473v-.237a.473.473,0,0,0-.946,0v.237A.474.474,0,0,0,176.473,41.183Z" transform="translate(-165.592 -37.635)" fill="#fff"/>
        <path id="Path_8869" data-name="Path 8869" d="M176.473,308a.474.474,0,0,0-.473.473v.237a.473.473,0,1,0,.946,0v-.237A.474.474,0,0,0,176.473,308Z" transform="translate(-165.592 -289.786)" fill="#fff"/>
        <path id="Path_8870" data-name="Path 8870" d="M40.71,176h-.237a.473.473,0,0,0,0,.946h.237a.473.473,0,0,0,0-.946Z" transform="translate(-37.635 -165.592)" fill="#fff"/>
        <path id="Path_8871" data-name="Path 8871" d="M308.71,176h-.237a.473.473,0,0,0,0,.946h.237a.473.473,0,0,0,0-.946Z" transform="translate(-289.786 -165.592)" fill="#fff"/>
        <path id="Path_8872" data-name="Path 8872" d="M80.8,80.142a.468.468,0,0,0-.662.662l.166.166a.457.457,0,0,0,.662,0,.457.457,0,0,0,0-.662Z" transform="translate(-75.269 -75.269)" fill="#fff"/>
        <path id="Path_8873" data-name="Path 8873" d="M80.308,269.342l-.166.166a.457.457,0,0,0,0,.662.457.457,0,0,0,.662,0L80.97,270a.468.468,0,0,0-.662-.662Z" transform="translate(-75.269 -253.281)" fill="#fff"/>
        <path id="Path_8874" data-name="Path 8874" d="M269.508,80.142l-.166.166a.457.457,0,0,0,0,.662.457.457,0,0,0,.662,0l.166-.166a.468.468,0,0,0-.662-.662Z" transform="translate(-253.281 -75.269)" fill="#fff"/>
        <path id="Path_8875" data-name="Path 8875" d="M176.946,104.778v-4.305a.473.473,0,0,0-.946,0v4.494a.467.467,0,0,0,.142.331l5.18,5.18a.457.457,0,0,0,.662,0,.457.457,0,0,0,0-.662Z" transform="translate(-165.592 -94.086)" fill="#fff"/>
        <path id="Path_8876" data-name="Path 8876" d="M10.881,0A10.881,10.881,0,1,0,21.762,10.881,10.882,10.882,0,0,0,10.881,0Zm0,20.816a9.935,9.935,0,1,1,9.935-9.935A9.933,9.933,0,0,1,10.881,20.816Z" fill="#fff"/>
      </g>
    </g>
  </g>
</svg>
