<svg xmlns="http://www.w3.org/2000/svg" width="18.092" height="16.835" viewBox="0 0 18.092 16.835">
  <path id="image" d="M18.092,2.122v8.913H16.678V2.122a.708.708,0,0,0-.707-.707H2.122a.708.708,0,0,0-.707.707V7.475L4.341,3.2,6.689,6.132,7.752,4.6l4.54,5.9v.531H10.915L7.81,7,3.835,12.713,2.673,11.9,5.846,7.344,4.43,5.574,1.415,9.981v3.46a.708.708,0,0,0,.707.707H9.356v1.415H2.122A2.125,2.125,0,0,1,0,13.44V2.122A2.125,2.125,0,0,1,2.122,0H15.97a2.124,2.124,0,0,1,2.122,2.122ZM13.353,6.791a2.122,2.122,0,1,1,2.122-2.122A2.125,2.125,0,0,1,13.353,6.791Zm.707-2.122a.707.707,0,1,0-.707.707A.708.708,0,0,0,14.06,4.669Zm1.061,4.81H13.707V12.45H10.736v1.415h2.971v2.971h1.415V13.865h2.971V12.45H15.122Zm0,0" transform="translate(0 0)" fill="#fff"/>
</svg>
