<svg id="location" xmlns="http://www.w3.org/2000/svg" width="18.109" height="21.306" viewBox="0 0 18.109 21.306">
  <g id="Location-2" data-name="Location" transform="translate(0 0)">
    <path id="Location-3" data-name="Location" d="M8,20.967l-.064-.051-.44-.3a22.113,22.113,0,0,1-4.83-4.534l-.337-.44A11.4,11.4,0,0,1,0,9.083l0-.3A9.067,9.067,0,0,1,9.054,0h.031l.272,0a9.072,9.072,0,0,1,8.752,9.106V9.22c-.054,2.812-1.424,5.72-3.962,8.407a22.552,22.552,0,0,1-3.989,3.3l-.053.044a1.8,1.8,0,0,1-2.1,0ZM8.824,1.62A7.455,7.455,0,0,0,1.612,9.054l.02.381A9.786,9.786,0,0,0,3.618,14.67a20.421,20.421,0,0,0,5.222,4.9l.087.066a.192.192,0,0,0,.254,0l.09-.068a20.9,20.9,0,0,0,3.71-3.063C15.236,14.124,16.452,11.6,16.5,9.2l0-.354A7.454,7.454,0,0,0,9.08,1.616ZM5.6,9.213a3.449,3.449,0,1,1,3.449,3.46A3.459,3.459,0,0,1,5.6,9.213Zm1.612,0A1.838,1.838,0,1,0,9.054,7.37,1.842,1.842,0,0,0,7.216,9.213Z" fill="#d95427"/>
  </g>
</svg>
