<svg xmlns="http://www.w3.org/2000/svg" width="22.393" height="16.87" viewBox="0 0 22.393 16.87">
  <g id="meal" transform="translate(0.15 -63.85)">
    <g id="Group_5877" data-name="Group 5877" transform="translate(0 64)">
      <g id="Group_5876" data-name="Group 5876">
        <path id="Path_8857" data-name="Path 8857" d="M20.714,76.556a9.589,9.589,0,0,0-7.8-9.6,2.049,2.049,0,0,0,.209-.889,2.071,2.071,0,1,0-4.142,0,2.049,2.049,0,0,0,.209.889,9.584,9.584,0,0,0-7.8,9.594,2.066,2.066,0,0,0,.692,4.015H20.022a2.066,2.066,0,0,0,.692-4.014ZM11.047,65.381a.688.688,0,0,1,.022,1.377h-.044a.688.688,0,0,1,.022-1.377ZM6.715,69.36a8.291,8.291,0,0,1,4.3-1.221.314.314,0,0,1,.036,0,.318.318,0,0,0,.036,0,8.288,8.288,0,0,1,8.253,8.289H2.757A8.254,8.254,0,0,1,6.715,69.36Zm13.307,9.829H2.071a.69.69,0,1,1,0-1.381H20.022a.69.69,0,1,1,0,1.381Z" transform="translate(0 -64)" fill="#fff" stroke="#fff" stroke-width="0.3"/>
      </g>
    </g>
  </g>
</svg>
