<svg xmlns="http://www.w3.org/2000/svg" width="19.952" height="18.29" viewBox="0 0 19.952 18.29">
  <g id="premium" transform="translate(0 -0.999)">
    <path id="Path_8861" data-name="Path 8861" d="M9.976,19.289a.418.418,0,0,1-.318-.148L.1,7.786a.416.416,0,0,1-.047-.467L3.4,1.216A.416.416,0,0,1,3.767,1H16.185a.414.414,0,0,1,.364.216l3.351,6.1a.414.414,0,0,1-.047.467l-9.56,11.355A.415.415,0,0,1,9.976,19.289ZM.918,7.468l9.058,10.76,9.058-10.76L15.939,1.831H4.013Z" transform="translate(0 0)" fill="#fff"/>
    <path id="Path_8862" data-name="Path 8862" d="M19.37,9.331H.666a.416.416,0,0,1,0-.831h18.7a.416.416,0,0,1,0,.831Z" transform="translate(-0.042 -1.265)" fill="#fff"/>
    <path id="Path_8863" data-name="Path 8863" d="M15.28,7.833a.414.414,0,0,1-.34-.177L11.074,2.141,7.256,7.626a.415.415,0,1,1-.682-.475l4.157-5.974A.414.414,0,0,1,11.071,1h0a.414.414,0,0,1,.34.177l4.208,6a.416.416,0,0,1-.34.654Z" transform="translate(-1.097 0)" fill="#fff"/>
    <path id="Path_8864" data-name="Path 8864" d="M10.656,19.288a.415.415,0,0,1-.392-.276L4.055,1.555a.416.416,0,0,1,.783-.279l5.817,16.357L16.473,1.276a.416.416,0,0,1,.783.279L11.047,19.012a.415.415,0,0,1-.392.276Z" transform="translate(-0.68 0)" fill="#fff"/>
  </g>
</svg>
