<svg xmlns="http://www.w3.org/2000/svg" width="21.258" height="22.776" viewBox="0 0 21.258 22.776">
  <g id="user" transform="translate(-17.19 0.25)">
    <g id="Group_3847" data-name="Group 3847" transform="translate(17.44 12.547)">
      <g id="Group_3846" data-name="Group 3846">
        <path id="Path_8767" data-name="Path 8767" d="M27.819,288.389c-6.693,0-10.379,3.166-10.379,8.916a.813.813,0,0,0,.813.813H37.385a.813.813,0,0,0,.813-.813C38.2,291.556,34.512,288.389,27.819,288.389Zm-8.724,8.1c.32-4.3,3.251-6.477,8.724-6.477s8.4,2.178,8.724,6.477Z" transform="translate(-17.44 -288.389)" fill="#fff" stroke="#fff" stroke-width="0.5"/>
      </g>
    </g>
    <g id="Group_3849" data-name="Group 3849" transform="translate(22.426)">
      <g id="Group_3848" data-name="Group 3848">
        <path id="Path_8768" data-name="Path 8768" d="M137.442,0a5.328,5.328,0,0,0-5.393,5.5,5.411,5.411,0,1,0,10.786,0A5.328,5.328,0,0,0,137.442,0Zm0,9.729A4.022,4.022,0,0,1,133.675,5.5a3.7,3.7,0,0,1,3.767-3.875A3.738,3.738,0,0,1,141.209,5.5,4.022,4.022,0,0,1,137.442,9.729Z" transform="translate(-132.049)" fill="#fff" stroke="#fff" stroke-width="0.5"/>
      </g>
    </g>
  </g>
</svg>
