<svg xmlns="http://www.w3.org/2000/svg" width="18.01" height="16.66" viewBox="0 0 18.01 16.66">
  <g id="wallet" transform="translate(0 -19.098)">
    <path id="Path_8866" data-name="Path 8866" d="M16.363,22.922h-.224V20.745A1.649,1.649,0,0,0,14.492,19.1H2.544A2.547,2.547,0,0,0,.013,21.392C-.006,21.483,0,20.674,0,33.215a2.546,2.546,0,0,0,2.543,2.543H16.363a1.649,1.649,0,0,0,1.647-1.647V24.569a1.649,1.649,0,0,0-1.647-1.647ZM2.544,20.229H14.492a.516.516,0,0,1,.516.516v2.176H2.544a1.347,1.347,0,1,1,0-2.692Zm13.819,14.4H2.544a1.413,1.413,0,0,1-1.412-1.412V23.624a2.529,2.529,0,0,0,1.412.429H16.363a.516.516,0,0,1,.516.516v2.294H12.621a2.629,2.629,0,1,0,0,5.259h4.257v1.99A.516.516,0,0,1,16.363,34.627Zm.516-3.637H12.621a1.5,1.5,0,1,1,0-3h4.257Z" transform="translate(0)" fill="#fff"/>
    <circle id="Ellipse_73" data-name="Ellipse 73" cx="0.82" cy="0.82" r="0.82" transform="translate(12.01 28.672)" fill="#fff"/>
  </g>
</svg>
