<svg xmlns="http://www.w3.org/2000/svg" width="23.661" height="27.13" viewBox="0 0 23.661 27.13">
  <g id="bell" transform="translate(-2)">
    <path id="Path_1506" data-name="Path 1506" d="M24.926,19.119a7.439,7.439,0,0,1-2.814-5.793V10.174a8.046,8.046,0,0,0-7.1-7.823V1.13a1.184,1.184,0,0,0-2.366,0V2.351a8.045,8.045,0,0,0-7.1,7.823v3.152a7.448,7.448,0,0,1-2.825,5.8A1.939,1.939,0,0,0,2,20.63a2.028,2.028,0,0,0,2.07,1.978H23.59a2.028,2.028,0,0,0,2.07-1.978A1.948,1.948,0,0,0,24.926,19.119Z" transform="translate(0 0)" fill="#d95427"/>
    <path id="Path_1507" data-name="Path 1507" d="M12.479,24.391A4.246,4.246,0,0,0,16.632,21H8.326A4.246,4.246,0,0,0,12.479,24.391Z" transform="translate(1.351 2.739)" fill="#d95427"/>
  </g>
</svg>
