<svg xmlns="http://www.w3.org/2000/svg" width="24.952" height="27.567" viewBox="0 0 24.952 27.567">
  <g id="bell_3_" data-name="bell (3)" transform="translate(-24.16)">
    <path id="Path_8769" data-name="Path 8769" d="M46.253,18.032a.716.716,0,0,1-.715-.715V12.268a8.919,8.919,0,0,0-6.253-8.5,2.815,2.815,0,1,0-5.3,0,8.919,8.919,0,0,0-6.251,8.5v5.049a.716.716,0,0,1-.715.715,2.858,2.858,0,1,0,0,5.717h6.668a3.048,3.048,0,1,0,5.9,0h6.668a2.858,2.858,0,0,0,0-5.717ZM35.443,2.816a1.193,1.193,0,1,1,2.219.609,8.879,8.879,0,0,0-2.051,0A1.184,1.184,0,0,1,35.443,2.816Zm2.617,21.7a1.424,1.424,0,1,1-2.622-.77h2.4a1.414,1.414,0,0,1,.226.77Zm8.193-2.394H27.018a1.235,1.235,0,0,1,0-2.469,2.341,2.341,0,0,0,2.338-2.338V12.268a7.279,7.279,0,0,1,14.558,0v5.049a2.341,2.341,0,0,0,2.338,2.338,1.235,1.235,0,1,1,0,2.469Z" fill="#d95427"/>
  </g>
</svg>
