<svg xmlns="http://www.w3.org/2000/svg" width="94.455" height="72.485" viewBox="0 0 94.455 72.485">
  <g id="Group_6168" data-name="Group 6168" transform="translate(94.455) rotate(90)" opacity="0.31">
    <path id="Path_8942" data-name="Path 8942" d="M63.466,0a9.01,9.01,0,0,0-4.892,1.442,108.774,108.774,0,0,0-22.3,19.052A109.6,109.6,0,0,0,13.951,1.579,9.018,9.018,0,0,0,0,9.129v6.719a9.018,9.018,0,0,0,4.192,7.618A77.769,77.769,0,0,1,28.536,48.861a9.019,9.019,0,0,0,7.656,4.333h.049A9.019,9.019,0,0,0,43.9,48.946c7.229-11.6,15.359-20.123,24.164-25.337a9.02,9.02,0,0,0,4.424-7.76V9.019A9.019,9.019,0,0,0,63.466,0" transform="translate(0 41.26)" fill="#d95427"/>
    <path id="Path_8943" data-name="Path 8943" d="M63.466,0a9.015,9.015,0,0,0-4.892,1.442A108.793,108.793,0,0,0,36.257,20.508,110.957,110.957,0,0,0,13.95,1.577,9.019,9.019,0,0,0,0,9.129v6.719a9.019,9.019,0,0,0,4.191,7.618,77.758,77.758,0,0,1,24.345,25.39,9.018,9.018,0,0,0,7.655,4.333h.051A9.017,9.017,0,0,0,43.9,48.942c7.232-11.6,15.362-20.121,24.166-25.334a9.018,9.018,0,0,0,4.424-7.76V9.018A9.019,9.019,0,0,0,63.466,0" transform="translate(0)" fill="#d95427"/>
  </g>
</svg>
