<svg xmlns="http://www.w3.org/2000/svg" width="13.919" height="12.709" viewBox="0 0 13.919 12.709">
  <g id="right-arrow_2_" data-name="right-arrow (2)" transform="translate(13.919 -21.336) rotate(90)">
    <g id="Group_3715" data-name="Group 3715" transform="translate(21.336 0.004)">
      <path id="Path_8469" data-name="Path 8469" d="M213.856.219a.3.3,0,0,0-.428.428l6.441,6.442-6.442,6.441a.3.3,0,0,0,.42.435l.007-.007L220.511,7.3a.3.3,0,0,0,0-.428Z" transform="translate(-207.89 -0.134)" fill="#5e55a5"/>
      <path id="Path_8470" data-name="Path 8470" d="M28.512,6.874,21.857.219a.3.3,0,0,0-.428.428L27.87,7.088l-6.442,6.441a.3.3,0,1,0,.42.435l.007-.007L28.511,7.3A.3.3,0,0,0,28.512,6.874Z" transform="translate(-21.336 -0.134)" fill="#5e55a5"/>
    </g>
    <path id="Path_8471" data-name="Path 8471" d="M213.761,14.067a.3.3,0,0,1-.214-.517l6.442-6.441L213.547.668a.3.3,0,0,1,.428-.428L220.63,6.9a.3.3,0,0,1,0,.428l-6.655,6.655A.3.3,0,0,1,213.761,14.067Z" transform="translate(-186.673 -0.151)" fill="#5e55a5"/>
    <path id="Path_8472" data-name="Path 8472" d="M21.761,13.916a.3.3,0,0,1-.214-.517l6.442-6.441L21.547.517a.3.3,0,0,1,.428-.428L28.63,6.744a.3.3,0,0,1,0,.428l-6.655,6.655A.3.3,0,0,1,21.761,13.916Z" transform="translate(-0.119 0)" fill="#5e55a5"/>
  </g>
</svg>
