<svg xmlns="http://www.w3.org/2000/svg" width="31.022" height="26.14" viewBox="0 0 31.022 26.14">
  <g id="shopping-cart_1_" data-name="shopping-cart (1)" transform="translate(0 -40.283)">
    <path id="Path_8760" data-name="Path 8760" d="M30.561,49.055a2.144,2.144,0,0,0-1.686-.809H22.9l-3.24-7.418A.909.909,0,1,0,18,41.556l2.922,6.691H10.1l2.922-6.691a.909.909,0,1,0-1.666-.727l-3.24,7.418H2.147a2.143,2.143,0,0,0-1.686.809,2.093,2.093,0,0,0-.407,1.78L3.244,64.77a2.129,2.129,0,0,0,2.093,1.653H25.684a2.129,2.129,0,0,0,2.093-1.653l3.19-13.936a2.093,2.093,0,0,0-.407-1.78Zm-4.877,15.55H5.337a.325.325,0,0,1-.321-.241L1.825,50.429a.278.278,0,0,1,.057-.241.33.33,0,0,1,.265-.124H7.327l-.238.545a.909.909,0,1,0,1.666.728l.556-1.273h12.4l.556,1.273a.909.909,0,0,0,1.666-.728l-.238-.545h5.181a.33.33,0,0,1,.265.124.278.278,0,0,1,.057.241l-3.19,13.935a.325.325,0,0,1-.322.241Z" transform="translate(0)" fill="#5e55a5"/>
    <path id="Path_8761" data-name="Path 8761" d="M151.909,266.717a.909.909,0,0,0-.909.909v6.665a.909.909,0,1,0,1.818,0v-6.665A.909.909,0,0,0,151.909,266.717Z" transform="translate(-141.851 -212.715)" fill="#5e55a5"/>
    <path id="Path_8762" data-name="Path 8762" d="M241.909,266.717a.909.909,0,0,0-.909.909v6.665a.909.909,0,1,0,1.818,0v-6.665A.909.909,0,0,0,241.909,266.717Z" transform="translate(-226.398 -212.715)" fill="#5e55a5"/>
    <path id="Path_8763" data-name="Path 8763" d="M331.909,266.717a.909.909,0,0,0-.909.909v6.665a.909.909,0,0,0,1.818,0v-6.665A.909.909,0,0,0,331.909,266.717Z" transform="translate(-310.945 -212.715)" fill="#5e55a5"/>
  </g>
</svg>
