<svg xmlns="http://www.w3.org/2000/svg" width="18.676" height="22.995" viewBox="0 0 18.676 22.995">
  <g id="delete" transform="translate(0.003 0.001)">
    <path id="Path_8783" data-name="Path 8783" d="M222.936,154.7a.538.538,0,0,0-.539.539V165.42a.539.539,0,1,0,1.077,0V155.242A.538.538,0,0,0,222.936,154.7Zm0,0" transform="translate(-210.424 -146.373)" fill="#cb2027"/>
    <path id="Path_8784" data-name="Path 8784" d="M104.937,154.7a.538.538,0,0,0-.539.539V165.42a.539.539,0,0,0,1.077,0V155.242A.538.538,0,0,0,104.937,154.7Zm0,0" transform="translate(-98.779 -146.373)" fill="#cb2027"/>
    <path id="Path_8785" data-name="Path 8785" d="M1.526,6.844V20.112a2.971,2.971,0,0,0,.79,2.049,2.652,2.652,0,0,0,1.924.832H14.429a2.651,2.651,0,0,0,1.924-.832,2.971,2.971,0,0,0,.79-2.049V6.844A2.057,2.057,0,0,0,16.616,2.8H13.858V2.126A2.115,2.115,0,0,0,11.726,0H6.944A2.115,2.115,0,0,0,4.811,2.126V2.8H2.054a2.057,2.057,0,0,0-.528,4.045Zm12.9,15.072H4.24a1.706,1.706,0,0,1-1.637-1.8V6.892H16.066V20.112a1.706,1.706,0,0,1-1.637,1.8ZM5.888,2.126a1.038,1.038,0,0,1,1.056-1.05h4.782a1.038,1.038,0,0,1,1.056,1.05V2.8H5.888ZM2.054,3.876H16.616a.969.969,0,1,1,0,1.939H2.054a.969.969,0,1,1,0-1.939Zm0,0" transform="translate(0 0)" fill="#cb2027"/>
    <path id="Path_8786" data-name="Path 8786" d="M163.937,154.7a.538.538,0,0,0-.539.539V165.42a.539.539,0,0,0,1.077,0V155.242A.538.538,0,0,0,163.937,154.7Zm0,0" transform="translate(-154.602 -146.373)" fill="#cb2027"/>
  </g>
</svg>
