<svg id="Group_3955" data-name="Group 3955" xmlns="http://www.w3.org/2000/svg" width="83.704" height="83.368" viewBox="0 0 83.704 83.368">
  <path id="Path_8802" data-name="Path 8802" d="M245.073,104.137q-.419,0-.839-.01a1.265,1.265,0,1,1,.052-2.53,39.362,39.362,0,0,0,12.972-1.915,1.265,1.265,0,0,1,.784,2.406A41.814,41.814,0,0,1,245.073,104.137Zm-14.116-2.52a1.232,1.232,0,0,1-.439-.081,41.633,41.633,0,0,1-5.323-2.41A1.267,1.267,0,1,1,226.4,96.9a39.86,39.86,0,0,0,4.995,2.267,1.265,1.265,0,0,1-.439,2.452Zm42.128-8.692a1.265,1.265,0,0,1-.875-2.179,39.342,39.342,0,0,0,3.7-4.055,1.266,1.266,0,1,1,1.984,1.574,42.233,42.233,0,0,1-3.935,4.312A1.262,1.262,0,0,1,273.084,92.924Zm-60.829-5.479a1.265,1.265,0,0,1-1.024-.52A41.6,41.6,0,0,1,205,74.434a1.266,1.266,0,0,1,2.423-.735,39.138,39.138,0,0,0,5.853,11.733A1.264,1.264,0,0,1,213,87.2,1.244,1.244,0,0,1,212.255,87.445Zm71.173-10.559a1.246,1.246,0,0,1-.416-.072,1.265,1.265,0,0,1-.777-1.613,39.325,39.325,0,0,0,2.176-12.933l0-.159a1.267,1.267,0,0,1,2.533,0v.143a41.85,41.85,0,0,1-2.315,13.781A1.269,1.269,0,0,1,283.428,76.886ZM204.5,61.908l-.049,0a1.263,1.263,0,0,1-1.216-1.314,42.253,42.253,0,0,1,.634-5.8,1.266,1.266,0,0,1,2.491.452,39.615,39.615,0,0,0-.6,5.453A1.267,1.267,0,0,1,204.5,61.908Zm77.131-16.051a1.264,1.264,0,0,1-1.138-.715,39.15,39.15,0,0,0-2.728-4.754,1.264,1.264,0,1,1,2.1-1.408,41.293,41.293,0,0,1,2.9,5.06,1.266,1.266,0,0,1-.585,1.691A1.248,1.248,0,0,1,281.633,45.857ZM212.167,39.74a1.267,1.267,0,0,1-1.024-2.01,42.069,42.069,0,0,1,9.951-9.788,1.266,1.266,0,1,1,1.45,2.075,39.486,39.486,0,0,0-9.349,9.2A1.265,1.265,0,0,1,212.167,39.74Zm57.35-8.627a1.263,1.263,0,0,1-.761-.257,39.141,39.141,0,0,0-11.635-6.045,1.265,1.265,0,1,1,.774-2.41,41.685,41.685,0,0,1,12.386,6.435,1.266,1.266,0,0,1-.764,2.276Zm-35.468-6.666a1.266,1.266,0,0,1-.345-2.484,41.715,41.715,0,0,1,5.72-1.184,1.265,1.265,0,0,1,.338,2.507,39.418,39.418,0,0,0-5.369,1.112A1.278,1.278,0,0,1,234.049,24.447Z" transform="translate(-203.237 -20.769)" fill="#d95427"/>
</svg>
