<svg id="left-quote" xmlns="http://www.w3.org/2000/svg" width="23.838" height="19.907" viewBox="0 0 23.838 19.907">
  <g id="Group_3795" data-name="Group 3795" transform="translate(0 0)">
    <path id="Path_8671" data-name="Path 8671" d="M4.05,16.88A6.316,6.316,0,0,1,5.8,16.625a5.485,5.485,0,0,1,2.188.448c-.55-2.014-1.872-5.489-4.5-5.88a.625.625,0,0,1-.51-.45L2.394,8.686A.625.625,0,0,1,2.911,7.9a4.37,4.37,0,0,1,.589-.04c3.16,0,6.289,3.3,7.61,8.02.775,2.77,1,6.936-.907,9.557a5.7,5.7,0,0,1-4.633,2.329H5.545A5.546,5.546,0,0,1,4.05,16.88Z" transform="translate(12.159 -7.858)" fill="#5e55a5"/>
    <path id="Path_8672" data-name="Path 8672" d="M49.342,19.5a5.559,5.559,0,0,1,3.334-2.619,6.316,6.316,0,0,1,1.745-.255,5.486,5.486,0,0,1,2.189.448c-.55-2.014-1.872-5.489-4.5-5.88a.626.626,0,0,1-.51-.45L51.02,8.686a.625.625,0,0,1,.517-.788,4.365,4.365,0,0,1,.589-.04c3.16,0,6.289,3.3,7.61,8.02.775,2.77,1,6.936-.907,9.558A5.7,5.7,0,0,1,54.2,27.765H54.17A5.546,5.546,0,0,1,49.342,19.5Z" transform="translate(-48.626 -7.858)" fill="#5e55a5"/>
  </g>
</svg>
