<svg xmlns="http://www.w3.org/2000/svg" width="19.947" height="28.103" viewBox="0 0 19.947 28.103">
  <g id="notes_2_" data-name="notes (2)" transform="translate(-74)">
    <path id="Path_8779" data-name="Path 8779" d="M92.019,2.011H89.76V.827a.827.827,0,0,0-1.653,0V2.011H84.8V.827a.827.827,0,0,0-1.653,0V2.011H79.841V.827a.827.827,0,1,0-1.653,0V2.011H75.929A1.931,1.931,0,0,0,74,3.94V26.174A1.931,1.931,0,0,0,75.929,28.1h16.09a1.931,1.931,0,0,0,1.929-1.929V3.94A1.931,1.931,0,0,0,92.019,2.011Zm.276,24.163a.276.276,0,0,1-.276.276H75.929a.276.276,0,0,1-.276-.276V3.94a.276.276,0,0,1,.276-.276h2.259V4.849a.827.827,0,1,0,1.653,0V3.664h3.306V4.849a.827.827,0,0,0,1.653,0V3.664h3.306V4.849a.827.827,0,1,0,1.653,0V3.664h2.259a.276.276,0,0,1,.276.276Z" transform="translate(0 0)" fill="#fff"/>
    <path id="Path_8780" data-name="Path 8780" d="M160.745,182.187h-9.919a.827.827,0,1,0,0,1.653h9.919a.827.827,0,0,0,0-1.653Z" transform="translate(-71.812 -172.148)" fill="#fff"/>
    <path id="Path_8781" data-name="Path 8781" d="M160.745,272.456h-9.919a.827.827,0,1,0,0,1.653h9.919a.827.827,0,0,0,0-1.653Z" transform="translate(-71.812 -257.443)" fill="#fff"/>
    <path id="Path_8782" data-name="Path 8782" d="M160.745,362.725h-9.919a.827.827,0,1,0,0,1.653h9.919a.827.827,0,0,0,0-1.653Z" transform="translate(-71.812 -342.738)" fill="#fff"/>
  </g>
</svg>
