<svg id="noti" xmlns="http://www.w3.org/2000/svg" width="23.661" height="26.141" viewBox="0 0 23.661 26.141">
  <g id="bell_3_" data-name="bell (3)" transform="translate(0)">
    <path id="Path_8769" data-name="Path 8769" d="M45.11,17.1a.679.679,0,0,1-.678-.678V11.633A8.457,8.457,0,0,0,38.5,3.573a2.67,2.67,0,1,0-5.028,0,8.457,8.457,0,0,0-5.927,8.06v4.788a.679.679,0,0,1-.678.678,2.71,2.71,0,1,0,0,5.421h6.323a2.89,2.89,0,1,0,5.594,0H45.11a2.71,2.71,0,0,0,0-5.421ZM34.859,2.671a1.131,1.131,0,1,1,2.1.577,8.419,8.419,0,0,0-1.945,0A1.123,1.123,0,0,1,34.859,2.671Zm2.482,20.58a1.35,1.35,0,1,1-2.486-.73h2.272a1.341,1.341,0,0,1,.214.73Zm7.769-2.27H26.87a1.171,1.171,0,0,1,0-2.342,2.22,2.22,0,0,0,2.217-2.217V11.633a6.9,6.9,0,0,1,13.805,0v4.788a2.22,2.22,0,0,0,2.217,2.217,1.171,1.171,0,1,1,0,2.342Z" transform="translate(-24.16 0)" fill="#5e55a5"/>
  </g>
</svg>
