<svg xmlns="http://www.w3.org/2000/svg" width="436.79" height="366.207" viewBox="0 0 436.79 366.207">
  <g id="Group_6169" data-name="Group 6169" transform="translate(0 -237.236)" opacity="0.3">
    <rect id="Rectangle_5520" data-name="Rectangle 5520" width="36.126" height="121.984" transform="translate(400.382 237.236)" fill="#d95427"/>
    <rect id="Rectangle_5521" data-name="Rectangle 5521" width="36.126" height="121.984" transform="translate(363.974 359.474)" fill="#d95427"/>
    <rect id="Rectangle_5522" data-name="Rectangle 5522" width="36.126" height="121.984" transform="translate(400.665 481.458)" fill="#d95427"/>
    <rect id="Rectangle_5523" data-name="Rectangle 5523" width="36.126" height="121.984" transform="translate(326.682 237.236)" fill="#d95427"/>
    <rect id="Rectangle_5524" data-name="Rectangle 5524" width="36.126" height="121.984" transform="translate(290.274 359.474)" fill="#d95427"/>
    <rect id="Rectangle_5525" data-name="Rectangle 5525" width="36.125" height="121.984" transform="translate(326.964 481.458)" fill="#d95427"/>
    <rect id="Rectangle_5526" data-name="Rectangle 5526" width="36.126" height="121.984" transform="translate(253.116 237.236)" fill="#d95427"/>
    <rect id="Rectangle_5527" data-name="Rectangle 5527" width="36.126" height="121.984" transform="translate(216.708 359.474)" fill="#d95427"/>
    <rect id="Rectangle_5528" data-name="Rectangle 5528" width="36.126" height="121.984" transform="translate(253.399 481.458)" fill="#d95427"/>
    <rect id="Rectangle_5529" data-name="Rectangle 5529" width="36.126" height="121.984" transform="translate(180.301 237.236)" fill="#d95427"/>
    <rect id="Rectangle_5530" data-name="Rectangle 5530" width="36.126" height="121.984" transform="translate(143.893 359.474)" fill="#d95427"/>
    <rect id="Rectangle_5531" data-name="Rectangle 5531" width="36.126" height="121.984" transform="translate(180.583 481.458)" fill="#d95427"/>
    <rect id="Rectangle_5532" data-name="Rectangle 5532" width="36.126" height="121.984" transform="translate(108.384 237.236)" fill="#d95427"/>
    <rect id="Rectangle_5533" data-name="Rectangle 5533" width="36.126" height="121.984" transform="translate(71.976 359.474)" fill="#d95427"/>
    <rect id="Rectangle_5534" data-name="Rectangle 5534" width="36.126" height="121.984" transform="translate(108.666 481.458)" fill="#d95427"/>
    <rect id="Rectangle_5535" data-name="Rectangle 5535" width="36.126" height="121.984" transform="translate(35.568 237.236)" fill="#d95427"/>
    <rect id="Rectangle_5536" data-name="Rectangle 5536" width="35.286" height="121.984" transform="translate(0 359.474)" fill="#d95427"/>
    <rect id="Rectangle_5537" data-name="Rectangle 5537" width="36.126" height="121.984" transform="translate(35.85 481.458)" fill="#d95427"/>
  </g>
</svg>
