<svg xmlns="http://www.w3.org/2000/svg" width="167.182" height="166.611" viewBox="0 0 167.182 166.611">
  <path id="Path_8941" data-name="Path 8941" d="M1050.85,755.329l3.313,64.021,23.922-59.477L1060.432,821.5l41.937-48.487-36.708,52.557,55.409-32.242-51.784,37.79,62.876-12.5-61.249,18.928,63.529,8.589-64.076-1.985,57.3,28.752-59.96-22.683,44.858,45.8-49.346-40.922,27.557,57.882-33.385-54.728,7.269,63.694-13.806-62.6-13.806,62.6,7.269-63.694-33.385,54.728,27.557-57.882L989.14,896.016l44.858-45.8L974.038,872.9l57.3-28.752-64.076,1.985,63.529-8.589-61.249-18.928,62.876,12.5-51.784-37.79,55.409,32.242-36.708-52.557,41.937,48.487-17.654-61.629,23.922,59.477Z" transform="translate(-967.26 -755.329)" fill="#e3c91f" opacity="0.65"/>
</svg>
