<svg id="user_6_" data-name="user (6)" xmlns="http://www.w3.org/2000/svg" width="24.359" height="26.14" viewBox="0 0 24.359 26.14">
  <g id="Group_3847" data-name="Group 3847" transform="translate(0 14.724)">
    <g id="Group_3846" data-name="Group 3846">
      <path id="Path_8767" data-name="Path 8767" d="M29.62,288.389c-7.854,0-12.18,3.716-12.18,10.462a.954.954,0,0,0,.954.954H40.845a.954.954,0,0,0,.954-.954C41.8,292.1,37.474,288.389,29.62,288.389ZM19.383,297.9c.375-5.045,3.814-7.6,10.237-7.6s9.862,2.556,10.237,7.6Z" transform="translate(-17.44 -288.389)" fill="#5e55a5"/>
    </g>
  </g>
  <g id="Group_3849" data-name="Group 3849" transform="translate(5.852)">
    <g id="Group_3848" data-name="Group 3848">
      <path id="Path_8768" data-name="Path 8768" d="M138.377,0a6.252,6.252,0,0,0-6.328,6.455,6.35,6.35,0,1,0,12.657,0A6.253,6.253,0,0,0,138.377,0Zm0,11.416a4.719,4.719,0,0,1-4.42-4.961,4.338,4.338,0,0,1,4.42-4.548,4.387,4.387,0,0,1,4.42,4.548A4.719,4.719,0,0,1,138.377,11.416Z" transform="translate(-132.049)" fill="#5e55a5"/>
    </g>
  </g>
</svg>
