<svg xmlns="http://www.w3.org/2000/svg" width="223.279" height="178.84" viewBox="0 0 223.279 178.84">
  <g id="v1" transform="translate(-61.542 -59.974)">
    <path id="Path_8473" data-name="Path 8473" d="M201.568,223.506h131.6c6.828,0,12.416,5.9,12.416,13.1V344.044c0,7.206-5.588,13.1-12.416,13.1h-131.6c-6.829,0-12.416-5.895-12.416-13.1V236.608C189.152,229.4,194.74,223.506,201.568,223.506Z" transform="translate(-100.514 -119.027)" fill="#c2c2c2" fill-rule="evenodd"/>
    <path id="Path_8474" data-name="Path 8474" d="M201.1,401.52a3.277,3.277,0,1,0-3.1-3.272A3.2,3.2,0,0,0,201.1,401.52Z" transform="translate(-106.072 -226.799)" fill="#5e55a5" fill-rule="evenodd"/>
    <rect id="Rectangle_1482" data-name="Rectangle 1482" width="131.256" height="105.243" transform="translate(101.211 118.677)" fill="#f2f2f2"/>
    <g id="Group_3730" data-name="Group 3730" transform="translate(74.67 118.648)">
      <g id="Group_3729" data-name="Group 3729">
        <path id="Path_8476" data-name="Path 8476" d="M165.759,261.647h11.956q-1.279,3.8-2.626,7.789-1.385,4.1-2.85,8.437-1.507,4.466-3.1,9.2-1.645,4.872-3.391,10.04H151.552q2.071-5.164,4.023-10.04,1.9-4.728,3.685-9.2,1.733-4.331,3.38-8.437Q164.24,265.447,165.759,261.647Z" transform="translate(-151.552 -261.647)" fill="#d95427" fill-rule="evenodd"/>
        <path id="Path_8477" data-name="Path 8477" d="M447.9,261.647h11.987q.642,3.8,1.315,7.789.69,4.1,1.423,8.437.755,4.466,1.551,9.2c.547,3.245,1.115,6.6,1.7,10.043H451.64q-.546-5.164-1.059-10.04-.5-4.728-.971-9.2c-.3-2.885-.6-5.7-.89-8.437Q448.3,265.447,447.9,261.647Z" transform="translate(-337.811 -261.647)" fill="#d95427" fill-rule="evenodd"/>
        <path id="Path_8478" data-name="Path 8478" d="M309.876,261.647h12q-.319,3.8-.657,7.789-.344,4.1-.712,8.437-.377,4.466-.776,9.2-.412,4.872-.847,10.04H304.637q.764-5.164,1.483-10.04.7-4.728,1.36-9.2.639-4.331,1.247-8.437Q309.317,265.447,309.876,261.647Z" transform="translate(-247.768 -261.647)" fill="#d95427" fill-rule="evenodd"/>
        <path id="Path_8479" data-name="Path 8479" d="M576.969,261.647H589.02l3.285,7.789q1.733,4.1,3.563,8.437,1.889,4.466,3.881,9.2,2.053,4.868,4.243,10.043H589.686q-1.854-5.17-3.6-10.043-1.694-4.724-3.3-9.2-1.552-4.331-3.026-8.437Q578.33,265.447,576.969,261.647Z" transform="translate(-418.933 -261.647)" fill="#d95427" fill-rule="evenodd"/>
        <path id="Path_8480" data-name="Path 8480" d="M237.746,261.647h11.987q-.8,3.8-1.642,7.789-.865,4.1-1.782,8.437-.943,4.466-1.941,9.2-1.028,4.873-2.12,10.04H228.018l2.756-10.04q1.3-4.728,2.522-9.2,1.186-4.331,2.314-8.437Q236.706,265.447,237.746,261.647Z" transform="translate(-199.612 -261.647)" fill="#d95427" fill-rule="evenodd"/>
        <path id="Path_8481" data-name="Path 8481" d="M512.432,261.647h11.987q1.121,3.8,2.3,7.789,1.209,4.1,2.491,8.437,1.318,4.47,2.713,9.2,1.437,4.868,2.968,10.043h-14.23c-.8-3.443-1.58-6.8-2.332-10.043q-1.1-4.724-2.133-9.2-1-4.331-1.957-8.437Q513.312,265.447,512.432,261.647Z" transform="translate(-378.371 -261.647)" fill="#d95427" fill-rule="evenodd"/>
        <path id="Path_8482" data-name="Path 8482" d="M382.051,261.647h11.987q.16,3.8.329,7.789c.114,2.733.233,5.55.355,8.437q.189,4.466.386,9.2.2,4.873.423,10.04H381.3q.111-5.164.214-10.04.1-4.728.192-9.2.093-4.331.182-8.437Q381.972,265.447,382.051,261.647Z" transform="translate(-295.952 -261.647)" fill="#d95427" fill-rule="evenodd"/>
        <path id="Path_8483" data-name="Path 8483" d="M201.729,261.647H213.7q-1.04,3.8-2.136,7.789-1.123,4.1-2.314,8.437-1.226,4.466-2.522,9.2l-2.756,10.04H189.759q1.746-5.164,3.391-10.04,1.6-4.728,3.1-9.2,1.462-4.331,2.85-8.437Q200.448,265.447,201.729,261.647Z" transform="translate(-175.566 -261.647)" fill="#fff" fill-rule="evenodd"/>
        <path id="Path_8484" data-name="Path 8484" d="M480.167,261.647h11.986q.879,3.8,1.809,7.789.95,4.1,1.957,8.437,1.039,4.466,2.133,9.2c.752,3.245,1.532,6.6,2.332,10.043H486.151c-.581-3.443-1.149-6.8-1.7-10.043q-.8-4.724-1.551-9.2-.731-4.331-1.423-8.437Q480.807,265.445,480.167,261.647Z" transform="translate(-358.092 -261.647)" fill="#fff" fill-rule="evenodd"/>
        <path id="Path_8485" data-name="Path 8485" d="M345.987,261.647h11.987q-.08,3.8-.163,7.789-.088,4.1-.182,8.437-.092,4.466-.192,9.2-.1,4.872-.214,10.04h-14.23q.436-5.164.847-10.04.4-4.728.776-9.2.365-4.331.713-8.437Q345.667,265.447,345.987,261.647Z" transform="translate(-271.876 -261.647)" fill="#fff" fill-rule="evenodd"/>
        <path id="Path_8486" data-name="Path 8486" d="M273.812,261.647H285.8q-.559,3.8-1.149,7.789-.605,4.1-1.247,8.437-.659,4.466-1.36,9.2-.719,4.872-1.483,10.04H266.328q1.092-5.164,2.12-10.04,1-4.728,1.941-9.2.912-4.331,1.782-8.437Q273.012,265.447,273.812,261.647Z" transform="translate(-223.691 -261.647)" fill="#fff" fill-rule="evenodd"/>
        <path id="Path_8487" data-name="Path 8487" d="M544.7,261.647h11.987q1.361,3.8,2.792,7.789,1.469,4.1,3.026,8.437,1.6,4.466,3.3,9.2,1.744,4.868,3.6,10.043h-14.23q-1.524-5.17-2.968-10.043-1.393-4.724-2.713-9.2-1.278-4.328-2.491-8.437Q545.823,265.447,544.7,261.647Z" transform="translate(-398.652 -261.647)" fill="#fff" fill-rule="evenodd"/>
        <path id="Path_8488" data-name="Path 8488" d="M415.588,261.647h12q.4,3.8.821,7.789c.288,2.734.587,5.552.89,8.437q.471,4.47.971,9.2.513,4.873,1.059,10.04h-14.25q-.217-5.164-.423-10.04-.2-4.728-.386-9.2c-.121-2.887-.241-5.7-.355-8.437Q415.749,265.445,415.588,261.647Z" transform="translate(-317.503 -261.647)" fill="#fff" fill-rule="evenodd"/>
      </g>
      <path id="Path_8489" data-name="Path 8489" d="M151.552,357.119c0,4.345,3.18,7.866,7.1,7.866s7.1-3.521,7.1-7.866H151.552Z" transform="translate(-151.552 -321.653)" fill="#d95427" fill-rule="evenodd"/>
      <path id="Path_8490" data-name="Path 8490" d="M189.8,357.119c0,4.345,3.18,7.866,7.1,7.866s7.1-3.521,7.1-7.866H189.8Z" transform="translate(-175.589 -321.653)" fill="#fff" fill-rule="evenodd"/>
      <path id="Path_8491" data-name="Path 8491" d="M304.637,357.119c0,4.345,3.18,7.866,7.1,7.866s7.1-3.521,7.1-7.866h-14.2Z" transform="translate(-247.768 -321.653)" fill="#d95427" fill-rule="evenodd"/>
      <path id="Path_8492" data-name="Path 8492" d="M419.609,357.119c0,4.345,3.184,7.866,7.108,7.866s7.109-3.521,7.109-7.866H419.609Z" transform="translate(-320.03 -321.653)" fill="#fff" fill-rule="evenodd"/>
      <path id="Path_8493" data-name="Path 8493" d="M534.588,357.119c0,4.345,3.18,7.866,7.107,7.866s7.108-3.521,7.108-7.866H534.588Z" transform="translate(-392.296 -321.653)" fill="#d95427" fill-rule="evenodd"/>
      <path id="Path_8494" data-name="Path 8494" d="M228.018,357.119c0,4.345,3.186,7.866,7.115,7.866s7.116-3.521,7.116-7.866H228.018Z" transform="translate(-199.612 -321.653)" fill="#d95427" fill-rule="evenodd"/>
      <path id="Path_8495" data-name="Path 8495" d="M342.856,357.119c0,4.345,3.186,7.866,7.117,7.866s7.116-3.521,7.116-7.866H342.856Z" transform="translate(-271.79 -321.653)" fill="#fff" fill-rule="evenodd"/>
      <path id="Path_8496" data-name="Path 8496" d="M457.877,357.119c0,4.345,3.19,7.866,7.123,7.866s7.124-3.521,7.124-7.866H457.877Z" transform="translate(-344.082 -321.653)" fill="#d95427" fill-rule="evenodd"/>
      <path id="Path_8497" data-name="Path 8497" d="M572.85,357.119c0,4.345,3.19,7.866,7.125,7.866s7.124-3.521,7.124-7.866H572.85Z" transform="translate(-416.344 -321.653)" fill="#fff" fill-rule="evenodd"/>
      <path id="Path_8498" data-name="Path 8498" d="M266.328,357.119c0,4.345,3.185,7.866,7.116,7.866s7.115-3.521,7.115-7.866H266.328Z" transform="translate(-223.691 -321.653)" fill="#fff" fill-rule="evenodd"/>
      <path id="Path_8499" data-name="Path 8499" d="M381.168,357.119c0,4.345,3.186,7.866,7.114,7.866s7.116-3.521,7.116-7.866H381.168Z" transform="translate(-295.869 -321.653)" fill="#d95427" fill-rule="evenodd"/>
      <path id="Path_8500" data-name="Path 8500" d="M496.229,357.119c0,4.345,3.192,7.866,7.125,7.866s7.125-3.521,7.125-7.866h-14.25Z" transform="translate(-368.187 -321.653)" fill="#fff" fill-rule="evenodd"/>
      <path id="Path_8501" data-name="Path 8501" d="M611.205,357.119c0,4.345,3.19,7.866,7.124,7.866s7.124-3.521,7.124-7.866H611.205Z" transform="translate(-440.451 -321.653)" fill="#d95427" fill-rule="evenodd"/>
    </g>
    <path id="Rectangle_1483" data-name="Rectangle 1483" d="M7.446,0h177.71A7.447,7.447,0,0,1,192.6,7.447v0a7.447,7.447,0,0,1-7.447,7.447H7.447A7.447,7.447,0,0,1,0,7.448v0A7.446,7.446,0,0,1,7.446,0Z" transform="translate(70.537 223.921)" fill="#c2c2c2"/>
    <g id="Group_3734" data-name="Group 3734" transform="translate(140.836 171.296)">
      <g id="Group_3732" data-name="Group 3732" transform="translate(12.98)">
        <path id="Path_8512" data-name="Path 8512" d="M375.117,403.583h0a1.684,1.684,0,0,1,.646,2.282l-8.021,14.353a1.682,1.682,0,0,1-2.282.645h0a1.683,1.683,0,0,1-.647-2.282l8.021-14.353A1.682,1.682,0,0,1,375.117,403.583Z" transform="translate(-364.603 -403.371)" fill="#5e55a5" fill-rule="evenodd"/>
        <path id="Path_8513" data-name="Path 8513" d="M404.96,403.583h0a1.682,1.682,0,0,0-.644,2.282l8.021,14.353a1.681,1.681,0,0,0,2.281.645h0a1.68,1.68,0,0,0,.647-2.282l-8.021-14.353A1.682,1.682,0,0,0,404.96,403.583Z" transform="translate(-389.428 -403.371)" fill="#5e55a5" fill-rule="evenodd"/>
      </g>
      <path id="Path_8514" data-name="Path 8514" d="M340.131,454.828a3.444,3.444,0,0,0,.107.482l4.058,17.448a5.135,5.135,0,0,0,4.663,3.38h26.555a5.13,5.13,0,0,0,4.662-3.38l4.06-17.448a3.345,3.345,0,0,0,.107-.482Zm10.118,18.3h0a1.446,1.446,0,0,1-.253.021,1.406,1.406,0,0,1-1.394-1.127L346.168,458.9a1.373,1.373,0,0,1,1.147-1.588,1.417,1.417,0,0,1,1.647,1.106l2.435,13.122a1.372,1.372,0,0,1-1.147,1.588Zm6,.017h0c-.039,0-.081,0-.12,0a1.4,1.4,0,0,1-1.413-1.253l-1.122-13.123a1.386,1.386,0,0,1,1.3-1.477,1.406,1.406,0,0,1,1.532,1.25l1.121,13.12a1.385,1.385,0,0,1-1.3,1.479Zm7.43-1.314h0a1.394,1.394,0,0,1-1.418,1.367l-.019,0-.016,0a1.4,1.4,0,0,1-1.422-1.367V458.658a1.4,1.4,0,0,1,1.422-1.369l.016,0,.019,0a1.4,1.4,0,0,1,1.418,1.369V471.83Zm6.092.064h0a1.4,1.4,0,0,1-1.414,1.253c-.039,0-.081,0-.12,0a1.385,1.385,0,0,1-1.3-1.479l1.12-13.12a1.408,1.408,0,0,1,1.535-1.25,1.384,1.384,0,0,1,1.3,1.477l-1.12,13.123Zm8.542-13h0l-2.434,13.121a1.409,1.409,0,0,1-1.4,1.127,1.44,1.44,0,0,1-.251-.021,1.375,1.375,0,0,1-1.148-1.588l2.435-13.122a1.416,1.416,0,0,1,1.647-1.106A1.373,1.373,0,0,1,378.307,458.9Z" transform="translate(-336.242 -435.713)" fill="#d95427" fill-rule="evenodd"/>
      <path id="Path_8515" data-name="Path 8515" d="M424.557,443.853a1.6,1.6,0,1,0,1.6-1.6A1.6,1.6,0,0,0,424.557,443.853Z" transform="translate(-389.305 -427.812)" fill="#413f42" fill-rule="evenodd"/>
      <path id="Path_8516" data-name="Path 8516" d="M380.075,437.779h-48.82a1.477,1.477,0,0,0-1.592,1.325v4.157a1.476,1.476,0,0,0,1.592,1.324h48.82a1.477,1.477,0,0,0,1.594-1.324V439.1A1.478,1.478,0,0,0,380.075,437.779Z" transform="translate(-329.663 -424.997)" fill="#5e55a5" fill-rule="evenodd"/>
      <path id="Path_8517" data-name="Path 8517" d="M369.357,446.553a1.6,1.6,0,0,1-3.194,0Z" transform="translate(-352.604 -430.512)" fill="#505254" fill-rule="evenodd"/>
      <g id="Group_3733" data-name="Group 3733" transform="translate(13.559 14.647)">
        <path id="Path_8518" data-name="Path 8518" d="M369.357,444.4a1.6,1.6,0,1,1-1.6-1.6A1.6,1.6,0,0,1,369.357,444.4Z" transform="translate(-366.163 -442.8)" fill="#5e55a5" fill-rule="evenodd"/>
        <path id="Path_8519" data-name="Path 8519" d="M427.3,444.785a1.6,1.6,0,1,1-1.6-1.6A1.6,1.6,0,0,1,427.3,444.785Z" transform="translate(-402.579 -443.044)" fill="#5e55a5" fill-rule="evenodd"/>
      </g>
    </g>
    <g id="Group_3743" data-name="Group 3743" transform="translate(61.542 59.974)">
      <g id="Group_3742" data-name="Group 3742">
        <path id="Path_8520" data-name="Path 8520" d="M189.931,140.565a36.86,36.86,0,1,0-36.859,36.859A36.859,36.859,0,0,0,189.931,140.565Z" transform="translate(-116.212 -103.704)" fill="#5e55a5" fill-rule="evenodd"/>
        <g id="Group_3735" data-name="Group 3735" transform="translate(4.88 4.881)">
          <path id="Path_8521" data-name="Path 8521" d="M193.31,148.822a31.981,31.981,0,1,0-31.982,31.98A31.98,31.98,0,0,0,193.31,148.822Z" transform="translate(-129.348 -116.842)" fill="#fff" fill-rule="evenodd"/>
        </g>
        <g id="Group_3736" data-name="Group 3736" transform="translate(22.007 22.01)">
          <path id="Path_8522" data-name="Path 8522" d="M192,181.265a1.762,1.762,0,0,1-1.239-.513l-14.789-14.806a1.752,1.752,0,0,1,2.476-2.479l14.793,14.8a1.754,1.754,0,0,1-1.24,2.995Z" transform="translate(-175.453 -162.952)" fill="#d95427" fill-rule="evenodd"/>
        </g>
        <g id="Group_3737" data-name="Group 3737" transform="translate(37.119 37.135)">
          <path id="Path_8523" data-name="Path 8523" d="M217.725,219.745a1.783,1.783,0,0,1-1.591-1.928V205.6a1.622,1.622,0,1,1,3.184,0v12.216A1.781,1.781,0,0,1,217.725,219.745Z" transform="translate(-216.134 -203.669)" fill="#d95427" fill-rule="evenodd"/>
        </g>
        <g id="Group_3738" data-name="Group 3738" transform="translate(36.303 7.232)">
          <path id="Path_8524" data-name="Path 8524" d="M216.141,126.909a1.1,1.1,0,1,1-2.2,0v-2.635a1.1,1.1,0,1,1,2.2,0Z" transform="translate(-213.937 -123.172)" fill="#050505" fill-rule="evenodd"/>
          <path id="Path_8525" data-name="Path 8525" d="M216.141,274.475a1.1,1.1,0,0,1-2.2,0v-2.636a1.1,1.1,0,1,1,2.2,0Z" transform="translate(-213.937 -215.918)" fill="#050505" fill-rule="evenodd"/>
        </g>
        <g id="Group_3739" data-name="Group 3739" transform="translate(7.578 35.959)">
          <path id="Path_8526" data-name="Path 8526" d="M285.276,202.706a1.1,1.1,0,0,1,0-2.2h2.635a1.1,1.1,0,1,1,0,2.2Z" transform="translate(-229.357 -200.501)" fill="#050505" fill-rule="evenodd"/>
          <path id="Path_8527" data-name="Path 8527" d="M137.711,202.706a1.1,1.1,0,0,1,0-2.2h2.635a1.1,1.1,0,1,1,0,2.2Z" transform="translate(-136.61 -200.501)" fill="#050505" fill-rule="evenodd"/>
        </g>
        <g id="Group_3740" data-name="Group 3740" transform="translate(15.99 15.646)">
          <path id="Path_8528" data-name="Path 8528" d="M265.483,149.566a1.1,1.1,0,0,1-1.559-1.558l1.864-1.864a1.1,1.1,0,0,1,1.559,1.559Z" transform="translate(-224.839 -145.822)" fill="#050505" fill-rule="evenodd"/>
          <path id="Path_8529" data-name="Path 8529" d="M161.138,253.911a1.1,1.1,0,0,1-1.559-1.559l1.864-1.864A1.1,1.1,0,0,1,163,252.047Z" transform="translate(-159.255 -211.404)" fill="#050505" fill-rule="evenodd"/>
        </g>
        <g id="Group_3741" data-name="Group 3741" transform="translate(15.99 15.646)">
          <path id="Path_8530" data-name="Path 8530" d="M263.923,252.047a1.1,1.1,0,0,1,1.56-1.56l1.863,1.864a1.1,1.1,0,0,1-1.56,1.559Z" transform="translate(-224.838 -211.403)" fill="#050505" fill-rule="evenodd"/>
          <path id="Path_8531" data-name="Path 8531" d="M159.578,147.7a1.1,1.1,0,0,1,1.559-1.559L163,148.007a1.1,1.1,0,0,1-1.559,1.561Z" transform="translate(-159.255 -145.822)" fill="#050505" fill-rule="evenodd"/>
        </g>
      </g>
      <path id="Path_8532" data-name="Path 8532" d="M174.361,197.185a1.8,1.8,0,0,1-.023.314.888.888,0,0,1-.071.232.306.306,0,0,1-.118.138.3.3,0,0,1-.161.044h-7.068a.775.775,0,0,1-.243-.033.427.427,0,0,1-.176-.114.472.472,0,0,1-.111-.226,1.6,1.6,0,0,1-.033-.363,3.37,3.37,0,0,1,.017-.345.851.851,0,0,1,.064-.262,1.645,1.645,0,0,1,.127-.225,1.813,1.813,0,0,1,.2-.24l2.553-2.628a16.372,16.372,0,0,0,1.422-1.63,8.609,8.609,0,0,0,.825-1.315,4.4,4.4,0,0,0,.382-1.075,5.061,5.061,0,0,0,.091-.909,2.263,2.263,0,0,0-.142-.8,2.018,2.018,0,0,0-.414-.668,1.894,1.894,0,0,0-.677-.455,2.448,2.448,0,0,0-.936-.168,3.479,3.479,0,0,0-1.116.168,5.8,5.8,0,0,0-.866.368,6.848,6.848,0,0,0-.62.367.8.8,0,0,1-.37.169.215.215,0,0,1-.128-.041.273.273,0,0,1-.091-.128.992.992,0,0,1-.058-.236,2.83,2.83,0,0,1-.02-.358c0-.1,0-.182.01-.256a.877.877,0,0,1,.034-.188.779.779,0,0,1,.064-.149.933.933,0,0,1,.158-.172,3.673,3.673,0,0,1,.411-.279,4.382,4.382,0,0,1,.731-.35,6.537,6.537,0,0,1,.967-.294,5.194,5.194,0,0,1,1.109-.117,4.585,4.585,0,0,1,1.623.263,3.2,3.2,0,0,1,1.156.714,2.932,2.932,0,0,1,.688,1.055,3.584,3.584,0,0,1,.224,1.282,7.332,7.332,0,0,1-.106,1.221,5.147,5.147,0,0,1-.459,1.313,9.917,9.917,0,0,1-1.014,1.57,22.334,22.334,0,0,1-1.755,1.991l-2.022,2.113h5.56a.29.29,0,0,1,.151.043.37.37,0,0,1,.129.132.664.664,0,0,1,.081.221A1.734,1.734,0,0,1,174.361,197.185Z" transform="translate(-147.728 -154.773)" fill="#050505" fill-rule="evenodd"/>
      <path id="Path_8533" data-name="Path 8533" d="M201.332,194.489a1.137,1.137,0,0,1-.1.512.306.306,0,0,1-.277.185h-1.442v2.685a.219.219,0,0,1-.04.134.332.332,0,0,1-.141.094,1.334,1.334,0,0,1-.265.058,3.892,3.892,0,0,1-.415.019,3.78,3.78,0,0,1-.408-.019,1.23,1.23,0,0,1-.26-.058.3.3,0,0,1-.131-.094.239.239,0,0,1-.038-.134v-2.685H192.59a.526.526,0,0,1-.2-.03.322.322,0,0,1-.145-.108.5.5,0,0,1-.088-.227,2.409,2.409,0,0,1-.024-.383c0-.125,0-.237.011-.334a1.56,1.56,0,0,1,.04-.27,1,1,0,0,1,.078-.235,1.948,1.948,0,0,1,.117-.243l4.555-7.767a.443.443,0,0,1,.149-.138.774.774,0,0,1,.247-.1,2.05,2.05,0,0,1,.37-.057c.147-.01.323-.014.525-.014a5.335,5.335,0,0,1,.576.025,3.125,3.125,0,0,1,.4.063.7.7,0,0,1,.232.106.193.193,0,0,1,.08.155v8.162h1.442a.306.306,0,0,1,.269.172,1.012,1.012,0,0,1,.106.525Zm-3.515-7.714H197.8l-4.11,7.017h4.13Z" transform="translate(-163.932 -154.977)" fill="#050505" fill-rule="evenodd"/>
      <path id="Path_8534" data-name="Path 8534" d="M220.166,197.654a.562.562,0,0,1-.1.2.36.36,0,0,1-.162.114,1.061,1.061,0,0,1-.242.059,2.651,2.651,0,0,1-.351.019,2,2,0,0,1-.408-.033.688.688,0,0,1-.252-.1.246.246,0,0,1-.108-.155.353.353,0,0,1,.04-.223l5.97-16.377a.552.552,0,0,1,.1-.2.424.424,0,0,1,.158-.118.76.76,0,0,1,.239-.06,3.475,3.475,0,0,1,.357-.014,1.963,1.963,0,0,1,.4.033.721.721,0,0,1,.247.1.224.224,0,0,1,.108.159.423.423,0,0,1-.027.225Z" transform="translate(-180.523 -152.139)" fill="#050505" fill-rule="evenodd"/>
      <path id="Path_8535" data-name="Path 8535" d="M250.418,186.176c0,.121,0,.225-.012.324s-.025.188-.041.275a1.77,1.77,0,0,1-.071.26c-.026.081-.064.169-.1.26l-4.6,10.6a.625.625,0,0,1-.124.194.516.516,0,0,1-.188.117,1,1,0,0,1-.29.059c-.118.012-.264.014-.435.014a3.615,3.615,0,0,1-.522-.029.626.626,0,0,1-.274-.1.169.169,0,0,1-.073-.155.7.7,0,0,1,.071-.222l4.834-10.838h-6.129a.3.3,0,0,1-.278-.2,1.292,1.292,0,0,1-.095-.555,1.878,1.878,0,0,1,.024-.326.957.957,0,0,1,.074-.234.406.406,0,0,1,.118-.138.285.285,0,0,1,.157-.044h7.442a.869.869,0,0,1,.241.03.247.247,0,0,1,.158.119.706.706,0,0,1,.084.228A1.656,1.656,0,0,1,250.418,186.176Z" transform="translate(-195.328 -155.079)" fill="#050505" fill-rule="evenodd"/>
    </g>
    <g id="Group_3744" data-name="Group 3744" transform="translate(189.528 87.532)">
      <path id="Path_8536" data-name="Path 8536" d="M544.121,201.709H472.65A11.946,11.946,0,0,1,460.739,189.8h0a11.946,11.946,0,0,1,11.911-11.913h71.471a11.946,11.946,0,0,1,11.91,11.913h0A11.946,11.946,0,0,1,544.121,201.709Z" transform="translate(-460.739 -177.885)" fill="#5e55a5" fill-rule="evenodd"/>
      <path id="Path_8537" data-name="Path 8537" d="M556.032,209.953H460.739a11.946,11.946,0,0,0,11.911,11.911h71.471A11.946,11.946,0,0,0,556.032,209.953Z" transform="translate(-460.739 -198.04)" fill="#5e55a5" fill-rule="evenodd"/>
    </g>
    <path id="Path_8538" data-name="Path 8538" d="M511.744,206.249a2.943,2.943,0,0,1-.142.934,2.551,2.551,0,0,1-.39.738,2.661,2.661,0,0,1-.6.553,3.6,3.6,0,0,1-.764.382,4.618,4.618,0,0,1-.892.219,7.1,7.1,0,0,1-1.054.071h-2.564a.616.616,0,0,1-.413-.145.6.6,0,0,1-.167-.475V200.11a.6.6,0,0,1,.167-.474.614.614,0,0,1,.413-.145h2.42a6.5,6.5,0,0,1,1.5.15,2.942,2.942,0,0,1,1.034.451,1.947,1.947,0,0,1,.644.763,2.444,2.444,0,0,1,.225,1.087,2.346,2.346,0,0,1-.09.66,1.929,1.929,0,0,1-.26.562,1.9,1.9,0,0,1-.423.448,2.085,2.085,0,0,1-.567.313,2.637,2.637,0,0,1,.759.263,2.122,2.122,0,0,1,.6.481,2.234,2.234,0,0,1,.408.691,2.511,2.511,0,0,1,.151.889Zm-2.535-4.069a1.439,1.439,0,0,0-.092-.522.922.922,0,0,0-.267-.383,1.244,1.244,0,0,0-.451-.235,2.615,2.615,0,0,0-.724-.082h-.988v2.506h1.093a1.819,1.819,0,0,0,.676-.1,1.112,1.112,0,0,0,.67-.684,1.537,1.537,0,0,0,.084-.5Zm.5,4.14a1.564,1.564,0,0,0-.11-.6,1.145,1.145,0,0,0-.33-.444,1.481,1.481,0,0,0-.549-.278,3.288,3.288,0,0,0-.873-.1h-1.161v2.749H508.1a2.327,2.327,0,0,0,.689-.086,1.389,1.389,0,0,0,.483-.254,1.166,1.166,0,0,0,.32-.418A1.321,1.321,0,0,0,509.711,206.32Z" transform="translate(-298.88 -103.933)" fill="#fff" fill-rule="evenodd"/>
    <path id="Path_8539" data-name="Path 8539" d="M535.656,205.472a4.5,4.5,0,0,1-.263,1.586,3.114,3.114,0,0,1-.767,1.186,3.319,3.319,0,0,1-1.252.738,5.284,5.284,0,0,1-1.716.255,5.444,5.444,0,0,1-1.632-.227,3.2,3.2,0,0,1-1.226-.69,2.99,2.99,0,0,1-.763-1.153,4.481,4.481,0,0,1-.265-1.614v-5.871a.224.224,0,0,1,.046-.135.323.323,0,0,1,.158-.1,1.714,1.714,0,0,1,.3-.059,4.086,4.086,0,0,1,.476-.022,4.007,4.007,0,0,1,.466.022,1.594,1.594,0,0,1,.3.059.382.382,0,0,1,.159.1.208.208,0,0,1,.049.135v5.7a3.138,3.138,0,0,0,.142,1,1.827,1.827,0,0,0,.407.7,1.664,1.664,0,0,0,.634.416,2.373,2.373,0,0,0,.826.137,2.263,2.263,0,0,0,.826-.143,1.674,1.674,0,0,0,.623-.412,1.93,1.93,0,0,0,.391-.672,2.794,2.794,0,0,0,.137-.909v-5.815a.223.223,0,0,1,.046-.135.325.325,0,0,1,.154-.1,1.648,1.648,0,0,1,.3-.059,4.189,4.189,0,0,1,.473-.022,4.036,4.036,0,0,1,.467.022,1.6,1.6,0,0,1,.293.059.321.321,0,0,1,.156.1.227.227,0,0,1,.047.135Z" transform="translate(-313.341 -103.856)" fill="#fff" fill-rule="evenodd"/>
    <path id="Path_8540" data-name="Path 8540" d="M557.005,205.405v3.4a.2.2,0,0,1-.049.135.343.343,0,0,1-.159.1,1.667,1.667,0,0,1-.3.059,4.19,4.19,0,0,1-.474.023,4.147,4.147,0,0,1-.478-.023,1.8,1.8,0,0,1-.3-.059.315.315,0,0,1-.161-.1.22.22,0,0,1-.045-.135v-3.4l-2.644-5.26a2.547,2.547,0,0,1-.183-.429.213.213,0,0,1,.045-.232.555.555,0,0,1,.315-.1c.153-.013.368-.017.639-.017.23,0,.412,0,.547.016a1.227,1.227,0,0,1,.324.055.406.406,0,0,1,.176.107,1.163,1.163,0,0,1,.108.172l1.079,2.373c.1.229.208.471.311.723s.205.52.312.8h.016c.1-.27.191-.529.29-.784s.2-.493.29-.723l1.062-2.357a.575.575,0,0,1,.094-.191.383.383,0,0,1,.17-.117,1.082,1.082,0,0,1,.3-.058c.128-.011.3-.016.514-.016.281,0,.5,0,.66.017a.558.558,0,0,1,.32.1.215.215,0,0,1,.041.236,2.6,2.6,0,0,1-.179.425Z" transform="translate(-328.693 -103.856)" fill="#fff" fill-rule="evenodd"/>
    <path id="Path_8541" data-name="Path 8541" d="M593.276,208.408a.777.777,0,0,1-.06.308.644.644,0,0,1-.163.224.609.609,0,0,1-.237.129.962.962,0,0,1-.279.042H591.7a1.806,1.806,0,0,1-.454-.052.923.923,0,0,1-.349-.191,1.525,1.525,0,0,1-.31-.374,6.511,6.511,0,0,1-.338-.609l-2.395-4.514c-.14-.269-.281-.56-.426-.871s-.273-.614-.388-.906h-.014c.019.359.036.715.045,1.072s.016.723.016,1.1v5.055a.233.233,0,0,1-.043.134.31.31,0,0,1-.14.1,1.09,1.09,0,0,1-.273.064,3.556,3.556,0,0,1-.44.023,3.515,3.515,0,0,1-.437-.023,1,1,0,0,1-.266-.064.257.257,0,0,1-.134-.1.241.241,0,0,1-.039-.134v-8.678a.652.652,0,0,1,.207-.526.745.745,0,0,1,.5-.176h1.051a1.921,1.921,0,0,1,.48.049.992.992,0,0,1,.346.16,1.2,1.2,0,0,1,.287.31,3.822,3.822,0,0,1,.276.49l1.876,3.53c.108.214.217.426.324.632s.213.412.307.619.2.41.291.609.189.4.279.6h.006c-.014-.349-.028-.713-.035-1.09s-.01-.742-.01-1.085v-4.532a.228.228,0,0,1,.045-.135.361.361,0,0,1,.148-.1.95.95,0,0,1,.276-.064,4.28,4.28,0,0,1,.441-.017,4.123,4.123,0,0,1,.429.017.811.811,0,0,1,.263.064.309.309,0,0,1,.129.1.252.252,0,0,1,.04.135Z" transform="translate(-349.509 -103.883)" fill="#fff" fill-rule="evenodd"/>
    <path id="Path_8542" data-name="Path 8542" d="M620.306,203.924a7.137,7.137,0,0,1-.3,2.147,4.3,4.3,0,0,1-.888,1.606,3.83,3.83,0,0,1-1.456,1.009,5.408,5.408,0,0,1-2.013.346,5.914,5.914,0,0,1-1.961-.3,3.385,3.385,0,0,1-1.4-.9,3.831,3.831,0,0,1-.838-1.536,7.7,7.7,0,0,1-.281-2.207,6.926,6.926,0,0,1,.3-2.106,4.285,4.285,0,0,1,.888-1.591,3.852,3.852,0,0,1,1.457-1.006,5.371,5.371,0,0,1,2.019-.351,5.927,5.927,0,0,1,1.935.289,3.4,3.4,0,0,1,1.4.9,3.905,3.905,0,0,1,.85,1.522,7.369,7.369,0,0,1,.287,2.174Zm-2.062.1a7.4,7.4,0,0,0-.12-1.383,3,3,0,0,0-.4-1.067,1.966,1.966,0,0,0-.765-.688,2.627,2.627,0,0,0-1.191-.241,2.424,2.424,0,0,0-1.2.273,2.223,2.223,0,0,0-.786.728,2.984,2.984,0,0,0-.419,1.062,6.522,6.522,0,0,0-.121,1.288,7.746,7.746,0,0,0,.118,1.421,3.1,3.1,0,0,0,.4,1.08,1.872,1.872,0,0,0,.759.683,2.73,2.73,0,0,0,1.2.234,2.415,2.415,0,0,0,1.2-.27,2.154,2.154,0,0,0,.786-.731,3.035,3.035,0,0,0,.419-1.076A6.662,6.662,0,0,0,618.244,204.024Z" transform="translate(-365.759 -103.65)" fill="#fff" fill-rule="evenodd"/>
    <path id="Path_8543" data-name="Path 8543" d="M648.641,208.57a.811.811,0,0,1-.124.288.459.459,0,0,1-.235.162,1.512,1.512,0,0,1-.4.077c-.166.012-.374.017-.626.017-.282,0-.512-.005-.684-.017a1.451,1.451,0,0,1-.407-.077.416.416,0,0,1-.217-.162.913.913,0,0,1-.1-.288l-1.546-6.12h-.016l-1.461,6.12a.87.87,0,0,1-.1.28.435.435,0,0,1-.211.168,1.305,1.305,0,0,1-.394.079c-.167.012-.389.017-.66.017-.29,0-.521-.005-.691-.017a1.456,1.456,0,0,1-.406-.077.422.422,0,0,1-.217-.162.986.986,0,0,1-.11-.288l-2.192-8.425a2.433,2.433,0,0,1-.074-.422.275.275,0,0,1,.084-.234.533.533,0,0,1,.306-.1c.142-.013.339-.017.592-.017.233,0,.416,0,.553.01a1.045,1.045,0,0,1,.309.053.255.255,0,0,1,.142.119.905.905,0,0,1,.058.219l1.7,7.4h.008l1.759-7.344a.88.88,0,0,1,.079-.231.3.3,0,0,1,.162-.137,1.091,1.091,0,0,1,.319-.069c.133-.013.312-.017.538-.017s.428,0,.57.016a1.023,1.023,0,0,1,.329.063.355.355,0,0,1,.168.137.738.738,0,0,1,.081.239l1.823,7.344h.016l1.681-7.374a1.234,1.234,0,0,1,.058-.205.27.27,0,0,1,.142-.133.958.958,0,0,1,.3-.069c.13-.013.311-.017.545-.017s.393,0,.514.017a.418.418,0,0,1,.265.1.3.3,0,0,1,.072.241,2.6,2.6,0,0,1-.081.438Z" transform="translate(-382.472 -103.856)" fill="#fff" fill-rule="evenodd"/>
  </g>
</svg>
