<svg xmlns="http://www.w3.org/2000/svg" width="204.789" height="178.839" viewBox="0 0 204.789 178.839">
  <g id="v2" transform="translate(-98.007 -206.943)">
    <g id="Group_3750" data-name="Group 3750" transform="translate(195.567 285.556)">
      <g id="Group_3748" data-name="Group 3748" transform="translate(37.572 59.409)">
        <path id="Path_8544" data-name="Path 8544" d="M258.965,362.987a7.582,7.582,0,0,0,3.121,7.64c1.606,1.012,3.519,1.239,5.286,1.863a13.642,13.642,0,0,1,7.855,7.651l-23.656-1.082.76-16.6Z" transform="translate(-250.41 -362.455)" fill="#050505"/>
        <path id="Path_8545" data-name="Path 8545" d="M267.373,373.025c-1.767-.624-3.681-.851-5.286-1.863a7.129,7.129,0,0,1-2.9-3.943c-.5.708-.992,1.429-1.528,2.11a7.125,7.125,0,0,1-1.8,1.722,2.961,2.961,0,0,1-2.283.372,4.395,4.395,0,0,1-1.6-.813l-.411,8.984,23.656,1.082A13.642,13.642,0,0,0,267.373,373.025Z" transform="translate(-250.41 -362.991)" fill="#050505"/>
        <path id="Rectangle_1484" data-name="Rectangle 1484" d="M1.294,0h0A1.295,1.295,0,0,1,2.591,1.295V24.144a1.3,1.3,0,0,1-1.3,1.3h0a1.3,1.3,0,0,1-1.3-1.3V1.294A1.294,1.294,0,0,1,1.294,0Z" transform="translate(0 17.917) rotate(-87.382)" fill="#050505"/>
        <path id="Path_8546" data-name="Path 8546" d="M258.727,372.15h0a.737.737,0,0,1,.045-.976l3.772-3.74a.6.6,0,0,1,.9.042h0a.736.736,0,0,1-.045.976l-3.772,3.74A.6.6,0,0,1,258.727,372.15Z" transform="translate(-251.197 -362.995)" fill="#050505"/>
        <path id="Path_8547" data-name="Path 8547" d="M261.261,374.28h0a.736.736,0,0,1,.044-.976l3.773-3.74a.6.6,0,0,1,.9.041h0a.737.737,0,0,1-.044.976l-3.773,3.74A.6.6,0,0,1,261.261,374.28Z" transform="translate(-251.482 -363.234)" fill="#050505"/>
      </g>
      <g id="Group_3749" data-name="Group 3749">
        <path id="Path_8548" data-name="Path 8548" d="M257.312,356.226l1.578-48.4a5.943,5.943,0,0,0-5.841-6.137l-45.119-6.169L208,302.4a9.971,9.971,0,0,0,9.553,9.853l29.253,1.221-1.381,42.365Z" transform="translate(-207.93 -295.518)" fill="#050505"/>
      </g>
    </g>
    <g id="Group_3751" data-name="Group 3751" transform="translate(213.167 244.279)">
      <path id="Path_8549" data-name="Path 8549" d="M242.009,286.283c-4.289.123-7.791,2.375-7.821,5.03s3.423,4.7,7.713,4.581a12.045,12.045,0,0,0,3.381-.58l.006.018,24.813-4.219.414-4.3-26.7-.441A12.1,12.1,0,0,0,242.009,286.283Z" transform="translate(-228.483 -253.202)" fill="#b1b1b1"/>
      <path id="Path_8550" data-name="Path 8550" d="M258.968,286.608a49.983,49.983,0,0,0,.714,6.787l13.206-2.245.414-4.3Z" transform="translate(-231.27 -253.239)" fill="#b1b1b1"/>
      <path id="Path_8551" data-name="Path 8551" d="M239.9,255.69l4.335,26.677c.678,4.177-1.468,8.027-4.773,8.562s-6.56-2.441-7.239-6.617l-4.334-26.677a8.452,8.452,0,0,1,1.5-6.552l.028-.033a5.348,5.348,0,0,1,2.636-1.84l.008,0a4.957,4.957,0,0,1,.6-.136,5.522,5.522,0,0,1,4.6,1.543,7.385,7.385,0,0,1,.828.894A9.047,9.047,0,0,1,239.9,255.69Z" transform="translate(-227.76 -249.011)" fill="#b1b1b1"/>
      <path id="Path_8552" data-name="Path 8552" d="M272.67,288.5c.023.111.052.225.086.34a2.777,2.777,0,0,0,3.224,1.9,4.483,4.483,0,0,0,1.952-1.335,6.881,6.881,0,0,1,2.965-1.561,6.426,6.426,0,0,1,5.131.725c.815.542,4.333,1.99,3.762-.4-.766-3.211-5.725-4.326-8.55-4.672C278.238,283.126,271.764,284.255,272.67,288.5Z" transform="translate(-232.802 -252.882)" fill="#b1b1b1"/>
      <path id="Path_8553" data-name="Path 8553" d="M280.156,281.731c1.2-.187,2.5-.113,3.524-.725.256-.153,1.8-1.426,1.821-.572a3.3,3.3,0,0,1-1.378,2.387,10.6,10.6,0,0,1-3.03,2.238c-1.158.489-4.354.922-4.876-.691C275.735,282.877,279.055,281.9,280.156,281.731Z" transform="translate(-233.205 -252.512)" fill="#b1b1b1"/>
    </g>
    <g id="Group_3754" data-name="Group 3754" transform="translate(105.821 270.708)">
      <path id="Path_8554" data-name="Path 8554" d="M115.321,284.024" transform="translate(-107.768 -279.377)" fill="none" stroke="#fcf3d0" stroke-linecap="round" stroke-linejoin="round" stroke-width="4.232"/>
      <g id="Group_3753" data-name="Group 3753" transform="translate(10.955)">
        <g id="Group_3752" data-name="Group 3752">
          <ellipse id="Ellipse_26" data-name="Ellipse 26" cx="4.939" cy="7.276" rx="4.939" ry="7.276" transform="translate(151.915 3.14)" fill="#e38900"/>
          <path id="Path_8555" data-name="Path 8555" d="M299.09,283.83v11.883a9.477,9.477,0,0,0,0-11.883Z" transform="translate(-139.391 -279.356)" fill="#d6d6d6"/>
          <path id="Path_8556" data-name="Path 8556" d="M294.583,358.9c-11.662,0-21.117,9.845-21.117,21.988s9.455,21.989,21.117,21.989,21.118-9.844,21.118-21.989S306.246,358.9,294.583,358.9Zm0,30.1a8.115,8.115,0,1,1,7.787-8.108A7.953,7.953,0,0,1,294.583,388.992Z" transform="translate(-136.509 -287.798)" fill="#2e266c"/>
          <path id="Path_8557" data-name="Path 8557" d="M285.183,344.4s22.2-.491,32.31,23.89H282.408l-9.614,10.194H251.486l12.686-25.747,12.884-9.038Z" transform="translate(-134.037 -286.089)" fill="#e38900"/>
          <path id="Path_8922" data-name="Path 8922" d="M21.117,0C32.78,0,42.234,9.844,42.234,21.988S32.78,43.977,21.117,43.977,0,34.132,0,21.988,9.454,0,21.117,0Z" transform="translate(12.56 71.098)" fill="#2e266c"/>
          <path id="Path_8558" data-name="Path 8558" d="M289.85,331.467" transform="translate(-138.352 -284.713)" fill="none" stroke="#231f20" stroke-miterlimit="10" stroke-width="10.285"/>
          <path id="Path_8559" data-name="Path 8559" d="M119.154,376.312H221.267c30.149-1.834,46.567-32.692,51.787-44.555a14.5,14.5,0,0,0,.88-9l-5.141-23.088,6.877-2.445V282.75a3.959,3.959,0,0,0-4.927-3.839l-18.6,4.686v12.15l8.453,4.146a2.444,2.444,0,0,1,1.368,2.193v4.035c-18.082-.516-19.316,32.161-21.546,40.414a9.013,9.013,0,0,1-6.654,6.708,12.809,12.809,0,0,1-4.492.384H212.987l-7.342-.908a15.478,15.478,0,0,1-3.792-3.286,17.093,17.093,0,0,1,2.064-23.8l11.957-10.418H179.526S119.154,329.725,119.154,376.312Z" transform="translate(-119.154 -278.789)" fill="#d95427"/>
          <rect id="Rectangle_1485" data-name="Rectangle 1485" width="33.93" height="3.316" rx="1.658" transform="translate(27.593 74.88)" fill="#fff"/>
          <rect id="Rectangle_1486" data-name="Rectangle 1486" width="33.537" height="3.43" rx="1.715" transform="translate(27.976 66.347)" fill="#fff"/>
          <rect id="Rectangle_1487" data-name="Rectangle 1487" width="34.22" height="3.179" rx="1.59" transform="translate(27.426 83.501)" fill="#fff"/>
          <path id="Rectangle_1488" data-name="Rectangle 1488" d="M6.348,0H45.294a6.347,6.347,0,0,1,6.347,6.347V8.206a6.348,6.348,0,0,1-6.348,6.348H6.348A6.348,6.348,0,0,1,0,8.206V6.348A6.348,6.348,0,0,1,6.348,0Z" transform="translate(49.413 26.477)" fill="#e38900"/>
          <circle id="Ellipse_28" data-name="Ellipse 28" cx="8.346" cy="8.346" r="8.346" transform="translate(149.826 85.265)" fill="#d6d6d6"/>
          <circle id="Ellipse_29" data-name="Ellipse 29" cx="5.713" cy="5.713" r="5.713" transform="translate(150.093 93.611) rotate(-45)" fill="#fcf3d0"/>
        </g>
        <rect id="Rectangle_1489" data-name="Rectangle 1489" width="19.654" height="5.683" rx="2.842" transform="translate(124.256 9.401)" fill="#e38900"/>
      </g>
      <path id="Path_8560" data-name="Path 8560" d="M154.566,332.87H138.673a5.182,5.182,0,0,0-5.181,5.182v10.21Z" transform="translate(-109.812 -284.871)" fill="#d95427"/>
      <path id="Path_8561" data-name="Path 8561" d="M157.5,330.469H141.608a5.182,5.182,0,0,0-5.182,5.181v10.21Z" transform="translate(-110.142 -284.601)" fill="#e38900"/>
      <rect id="Rectangle_1490" data-name="Rectangle 1490" width="65.356" height="18.233" rx="9.117" transform="translate(0 82.808)" fill="#d6d6d6"/>
      <path id="Path_8562" data-name="Path 8562" d="M251.486,381.422h19.508l11.584-11.584h34.677" transform="translate(-123.083 -289.029)" fill="#2e266c" stroke="#d6d6d6" stroke-linecap="round" stroke-linejoin="round" stroke-width="5.603"/>
    </g>
    <path id="Path_8563" data-name="Path 8563" d="M212.726,298.566c-7.309-2.553-14.611-5.12-21.867-7.772-3.326-1.216-4.925-4.4-3.618-7.233l15.218-32.98a10.679,10.679,0,0,1,3.77-4.373,13.073,13.073,0,0,1,2.481-1.295,14.8,14.8,0,0,1,1.472-.506,19.34,19.34,0,0,1,13.062,1.166c7.311,3.259,9.844,7.857,9.9,13.035.068,6.944-4.326,14.932-7.65,22.136l-7.328,15.882A4.422,4.422,0,0,1,212.726,298.566Z" transform="translate(-9.985 -4.141)" fill="#d6d6d6"/>
    <path id="Path_8564" data-name="Path 8564" d="M235.191,239.931a5.661,5.661,0,0,0,6.266-4.957l1.35-11.541a5.587,5.587,0,0,0,.04-.661,3.63,3.63,0,0,0-.02-.384.059.059,0,0,0,0-.046.233.233,0,0,0-.007-.073,5.649,5.649,0,0,0-11.236-.146l-.721,6.167-.629,5.373A5.661,5.661,0,0,0,235.191,239.931Z" transform="translate(-14.867 -1.146)" fill="#ffbdb1"/>
    <path id="Path_8565" data-name="Path 8565" d="M218.041,247.071a4.1,4.1,0,0,1,2.032-2.705,31.006,31.006,0,0,0,6.951-8.413c.358-.655.822-1.536,1.344-2.5l6.67,2.327c.2-.082-1.971,2.369-3.265,4.59a15.815,15.815,0,0,0-1.643,5.587,3.1,3.1,0,0,1,.413,2.118c-.4,2.371-3.53,4.068-6.982,3.792S217.637,249.443,218.041,247.071Z" transform="translate(-13.495 -2.982)" fill="#ffbdb1"/>
    <path id="Path_8566" data-name="Path 8566" d="M230.461,245a48.637,48.637,0,0,1-6.766-3.344,33.582,33.582,0,0,1-3.622,3.633,4.1,4.1,0,0,0-2.032,2.705c-.4,2.371,2.068,4.518,5.52,4.8s6.577-1.42,6.982-3.792a3.1,3.1,0,0,0-.413-2.118C230.22,246.214,230.332,245.589,230.461,245Z" transform="translate(-13.495 -3.904)" fill="#b1b1b1"/>
    <g id="Group_3755" data-name="Group 3755" transform="translate(199.7 242.814)">
      <path id="Path_8568" data-name="Path 8568" d="M224.648,288.644c-4.455.136-8.091,2.618-8.122,5.544s3.555,5.186,8.01,5.049a11.817,11.817,0,0,0,3.511-.639l.006.02,25.767-4.651.431-4.745-27.732-.486A11.967,11.967,0,0,0,224.648,288.644Z" transform="translate(-213.03 -252.003)" fill="#b1b1b1"/>
      <path id="Path_8569" data-name="Path 8569" d="M242.259,289a58.4,58.4,0,0,0,.742,7.481l13.713-2.475.431-4.745Z" transform="translate(-215.924 -252.044)" fill="#b1b1b1"/>
      <path id="Path_8570" data-name="Path 8570" d="M225.216,255.309l2.177,29.7c.341,4.65-2.213,8.682-5.679,8.966s-6.577-3.283-6.918-7.933l-2.178-29.7a9.693,9.693,0,0,1,2.121-7.058l.032-.034a5.5,5.5,0,0,1,2.886-1.78h.009a4.807,4.807,0,0,1,.631-.094,5.584,5.584,0,0,1,4.63,2.117,8.107,8.107,0,0,1,.78,1.058A10.387,10.387,0,0,1,225.216,255.309Z" transform="translate(-212.587 -247.36)" fill="#b1b1b1"/>
      <path id="Path_8571" data-name="Path 8571" d="M256.488,291.088c.025.122.055.248.091.375a2.872,2.872,0,0,0,3.349,2.095,4.657,4.657,0,0,0,2.026-1.471,7.023,7.023,0,0,1,3.079-1.72,6.342,6.342,0,0,1,5.328.8c.846.6,4.5,2.192,3.908-.445-.8-3.539-5.946-4.769-8.88-5.15C262.27,285.164,255.547,286.41,256.488,291.088Z" transform="translate(-217.514 -251.65)" fill="#ffbdb1"/>
      <path id="Path_8572" data-name="Path 8572" d="M264.262,283.627c1.243-.208,2.6-.125,3.66-.8.266-.169,1.868-1.573,1.891-.631a3.691,3.691,0,0,1-1.432,2.632,11.068,11.068,0,0,1-3.146,2.466c-1.2.54-4.521,1.017-5.063-.762C259.671,284.89,263.119,283.817,264.262,283.627Z" transform="translate(-217.933 -251.242)" fill="#ffbdb1"/>
    </g>
    <rect id="Rectangle_1491" data-name="Rectangle 1491" width="26.673" height="4.44" rx="2.22" transform="translate(178.239 283.253) rotate(22.098)" fill="#d6d6d6"/>
    <ellipse id="Ellipse_30" data-name="Ellipse 30" cx="8.051" cy="8.169" rx="8.051" ry="8.169" transform="translate(203.383 221.354)" fill="#5e55a5"/>
    <path id="Path_8573" data-name="Path 8573" d="M255.5,221.6a3.988,3.988,0,0,1-2.267,2.734,15.606,15.606,0,0,1-8.844,1.783,32.622,32.622,0,0,1-9.49-2.443,8.154,8.154,0,0,1-5.463,5.086l-9.569,2.316c-3.673-1.833-4.44-6.33-3.722-10.641a19.586,19.586,0,0,1,.873-3.374,15.19,15.19,0,0,1,2.544-4.7,15.862,15.862,0,0,1,17.468-4.4c5.172,2.088,7.736,8.517,6.414,13.938-.063.256-.063.17.157.305a.454.454,0,0,0,.114.043c.121.035.177-.014.1-.014a28.188,28.188,0,0,0,5.449-1.946c1.8-.69,3.921-1.03,5.555-.021a1.566,1.566,0,0,1,.576.561A1.348,1.348,0,0,1,255.5,221.6Z" transform="translate(-13.26)" fill="#d95427"/>
    <g id="Group_3758" data-name="Group 3758" transform="translate(178.044 287.924)">
      <g id="Group_3756" data-name="Group 3756" transform="translate(37.572 59.409)">
        <path id="Path_8574" data-name="Path 8574" d="M239.222,365.655a7.582,7.582,0,0,0,3.121,7.64c1.6,1.012,3.519,1.239,5.285,1.863a13.643,13.643,0,0,1,7.856,7.651l-23.656-1.082.76-16.6Z" transform="translate(-230.667 -365.123)" fill="#ffbdb1"/>
        <path id="Path_8575" data-name="Path 8575" d="M247.629,375.693c-1.766-.624-3.681-.851-5.285-1.863a7.132,7.132,0,0,1-2.9-3.942c-.5.707-.992,1.428-1.527,2.109a7.115,7.115,0,0,1-1.8,1.722,2.961,2.961,0,0,1-2.283.372,4.391,4.391,0,0,1-1.6-.813l-.411,8.984,23.656,1.082A13.643,13.643,0,0,0,247.629,375.693Z" transform="translate(-230.667 -365.659)" fill="#050505"/>
        <path id="Rectangle_1492" data-name="Rectangle 1492" d="M1.295,0h0a1.3,1.3,0,0,1,1.3,1.3V24.143a1.3,1.3,0,0,1-1.3,1.3h0a1.3,1.3,0,0,1-1.3-1.3V1.295A1.295,1.295,0,0,1,1.295,0Z" transform="translate(0 17.917) rotate(-87.382)" fill="#ebe0cc"/>
        <path id="Path_8576" data-name="Path 8576" d="M238.984,374.818h0a.736.736,0,0,1,.044-.976l3.773-3.74a.6.6,0,0,1,.9.042h0a.736.736,0,0,1-.044.976l-3.773,3.74A.6.6,0,0,1,238.984,374.818Z" transform="translate(-231.453 -365.663)" fill="#ebe0cc"/>
        <path id="Path_8577" data-name="Path 8577" d="M241.517,376.948h0a.736.736,0,0,1,.045-.976l3.772-3.74a.6.6,0,0,1,.9.041h0a.736.736,0,0,1-.044.976l-3.772,3.74A.6.6,0,0,1,241.517,376.948Z" transform="translate(-231.738 -365.902)" fill="#ebe0cc"/>
      </g>
      <g id="Group_3757" data-name="Group 3757">
        <path id="Path_8578" data-name="Path 8578" d="M237.568,358.894l1.579-48.4a5.945,5.945,0,0,0-5.842-6.137l-45.119-6.169.075,6.88a9.971,9.971,0,0,0,9.553,9.853l29.253,1.221-1.382,42.365Z" transform="translate(-188.186 -298.186)" fill="#050505"/>
      </g>
    </g>
    <rect id="Rectangle_1493" data-name="Rectangle 1493" width="45.891" height="50.048" rx="4.757" transform="matrix(0.922, 0.388, -0.388, 0.922, 157.988, 217.203)" fill="#d95427"/>
    <path id="Path_8579" data-name="Path 8579" d="M190.588,285.163s15.392,7.814,24.153-5.92" transform="translate(-10.413 -8.132)" fill="none" stroke="#d95427" stroke-linecap="round" stroke-linejoin="round" stroke-width="4.002"/>
    <path id="Path_8580" data-name="Path 8580" d="M207.4,242.424s14.025,3.111,14.445,14.919" transform="translate(-12.303 -3.991)" fill="none" stroke="#d95427" stroke-linecap="round" stroke-linejoin="round" stroke-width="4.002"/>
    <line id="Line_33" data-name="Line 33" x2="43.571" y2="18.944" transform="translate(154.364 224.699)" fill="none" stroke="#5e55a5" stroke-linecap="round" stroke-linejoin="round" stroke-width="1.601"/>
    <g id="Group_3760" data-name="Group 3760" transform="translate(156.727 236.514)">
      <g id="Group_3759" data-name="Group 3759">
        <rect id="Rectangle_1495" data-name="Rectangle 1495" width="1.835" height="10.278" rx="0.918" transform="translate(9.564) rotate(23.048)" fill="#5e55a5"/>
        <rect id="Rectangle_1496" data-name="Rectangle 1496" width="1.835" height="10.278" rx="0.918" transform="translate(12.153 1.102) rotate(23.048)" fill="#5e55a5"/>
        <rect id="Rectangle_1497" data-name="Rectangle 1497" width="1.835" height="10.278" rx="0.918" transform="translate(14.743 2.204) rotate(23.048)" fill="#5e55a5"/>
        <rect id="Rectangle_1498" data-name="Rectangle 1498" width="7.464" height="4.894" rx="2.447" transform="translate(6.881 6.305) rotate(23.048)" fill="#5e55a5"/>
        <rect id="Rectangle_1499" data-name="Rectangle 1499" width="2.325" height="20.312" rx="1.162" transform="translate(7.952 10.351) rotate(23.048)" fill="#5e55a5"/>
        <rect id="Rectangle_1500" data-name="Rectangle 1500" width="2.325" height="20.312" rx="1.162" transform="translate(16.686 14.2) rotate(23.048)" fill="#5e55a5"/>
      </g>
      <rect id="Rectangle_1501" data-name="Rectangle 1501" width="7.464" height="12.358" rx="3.732" transform="translate(18.254 3.785) rotate(23.048)" fill="#5e55a5"/>
    </g>
    <rect id="Rectangle_1502" data-name="Rectangle 1502" width="23.206" height="2.368" rx="1.184" transform="translate(98.007 339.072)" fill="#d6d6d6"/>
    <rect id="Rectangle_1503" data-name="Rectangle 1503" width="23.206" height="2.368" rx="1.184" transform="translate(124.054 339.072)" fill="#d6d6d6"/>
    <rect id="Rectangle_1504" data-name="Rectangle 1504" width="23.206" height="2.368" rx="1.184" transform="translate(169.993 210.728)" fill="#cccaff"/>
    <rect id="Rectangle_1505" data-name="Rectangle 1505" width="23.206" height="2.368" rx="1.184" transform="translate(196.04 210.728)" fill="#cccaff"/>
    <rect id="Rectangle_1506" data-name="Rectangle 1506" width="17.878" height="1.824" rx="0.912" transform="translate(192.133 227.137)" fill="#cccaff"/>
  </g>
</svg>
