<svg xmlns="http://www.w3.org/2000/svg" width="168.225" height="178.839" viewBox="0 0 168.225 178.839">
  <g id="v3" transform="translate(-344.587 -297.563)">
    <path id="Path_8680" data-name="Path 8680" d="M395.611,385.541s-14.428-25.333.616-39.5c15.053-14.181,18.942-25.837,18.942-25.837s18.449,31.391,13.1,46.684S395.611,385.541,395.611,385.541Z" transform="translate(75.629 50.132)" fill="#fff"/>
    <path id="Path_8682" data-name="Path 8682" d="M389.965,383.147s-31.071-5.1-31.129-26.778-6.1-29.97-6.1-29.97,23.856,4.875,34.517,25.033C397.938,371.591,392.147,374.912,389.965,383.147Z" transform="translate(19.085 59.692)" fill="#fff"/>
    <g id="Group_3811" data-name="Group 3811" transform="translate(419.015 322.577)">
      <g id="Group_3809" data-name="Group 3809">
        <path id="Path_8683" data-name="Path 8683" d="M403.6,333.042a23.507,23.507,0,0,0-4.88-32.871l-27.991,37.757A23.494,23.494,0,0,0,403.6,333.042Z" transform="translate(-370.733 -300.171)" fill="#d95427"/>
      </g>
      <g id="Group_3810" data-name="Group 3810" transform="translate(1.424 1.859)">
        <path id="Path_8684" data-name="Path 8684" d="M400.873,330.49a21.148,21.148,0,0,0-4.392-29.588l-25.188,33.985A21.134,21.134,0,0,0,400.873,330.49Z" transform="translate(-371.293 -300.902)" fill="#ffe7c2"/>
      </g>
      <path id="Path_8685" data-name="Path 8685" d="M383.689,312.187c1.1.829,1.35,1.473,1.073,1.867-.28.371-.9.374-2.012-.45a9.162,9.162,0,0,1-2.047-2.564A8.6,8.6,0,0,1,383.689,312.187Z" transform="translate(-355.347 -283.397)" fill="#050505"/>
      <path id="Path_8686" data-name="Path 8686" d="M384.758,309.418c1.32.394,1.775.908,1.63,1.368s-.707.664-2.027.267a8.956,8.956,0,0,1-2.815-1.7A8.418,8.418,0,0,1,384.758,309.418Z" transform="translate(-354.046 -286.203)" fill="#050505"/>
      <path id="Path_8687" data-name="Path 8687" d="M384.771,306.926c1.378-.084,1.984.252,2.009.722s-.443.867-1.821.949a9.136,9.136,0,0,1-3.22-.638A8.383,8.383,0,0,1,384.771,306.926Z" transform="translate(-353.748 -289.767)" fill="#050505"/>
      <path id="Path_8688" data-name="Path 8688" d="M383.729,304.867c1.284-.557,1.961-.445,2.152-.018.2.455-.112.984-1.389,1.541a9.124,9.124,0,0,1-3.24.488A8.443,8.443,0,0,1,383.729,304.867Z" transform="translate(-354.5 -293.509)" fill="#050505"/>
      <path id="Path_8689" data-name="Path 8689" d="M381.785,303.294c1.027-.964,1.689-1.1,2.009-.74.338.343.226.946-.776,1.91a9.479,9.479,0,0,1-2.869,1.574A8.449,8.449,0,0,1,381.785,303.294Z" transform="translate(-356.2 -296.773)" fill="#050505"/>
      <path id="Path_8690" data-name="Path 8690" d="M380,315.749c.76,1.147,1.379,1.437,1.778,1.18.407-.28.435-.88-.333-2.04a9,9,0,0,0-2.436-2.18A8.321,8.321,0,0,0,380,315.749Z" transform="translate(-357.967 -280.82)" fill="#050505"/>
      <path id="Path_8691" data-name="Path 8691" d="M377.226,316.649c.31,1.361.8,1.831,1.277,1.722.46-.117.7-.674.374-2.024a9.448,9.448,0,0,0-1.546-2.889A8.411,8.411,0,0,0,377.226,316.649Z" transform="translate(-360.899 -279.667)" fill="#050505"/>
      <path id="Path_8692" data-name="Path 8692" d="M374.794,316.511c-.17,1.384.14,1.991.615,2.052.478.046.9-.389,1.048-1.783a8.945,8.945,0,0,0-.463-3.238A8.584,8.584,0,0,0,374.794,316.511Z" transform="translate(-364.539 -279.535)" fill="#050505"/>
      <path id="Path_8693" data-name="Path 8693" d="M372.8,315.321c-.615,1.251-.549,1.935-.122,2.146s.961-.059,1.6-1.3a9.466,9.466,0,0,0,.661-3.215A8.673,8.673,0,0,0,372.8,315.321Z" transform="translate(-368.24 -280.445)" fill="#050505"/>
      <path id="Path_8694" data-name="Path 8694" d="M379.93,309.767c.933.7,1.139,1.231.9,1.541-.234.326-.745.326-1.678-.361a7.947,7.947,0,0,1-1.719-2.141A6.983,6.983,0,0,1,379.93,309.767Z" transform="translate(-360.39 -286.845)" fill="#050505"/>
      <path id="Path_8695" data-name="Path 8695" d="M380.8,307.446c1.124.331,1.5.755,1.386,1.144s-.593.557-1.717.226a7.6,7.6,0,0,1-2.325-1.422A6.918,6.918,0,0,1,380.8,307.446Z" transform="translate(-359.29 -289.193)" fill="#050505"/>
      <path id="Path_8696" data-name="Path 8696" d="M380.827,305.36c1.167-.071,1.658.206,1.7.61.02.4-.366.73-1.536.8a7.492,7.492,0,0,1-2.683-.539A7.071,7.071,0,0,1,380.827,305.36Z" transform="translate(-359.049 -292.181)" fill="#050505"/>
      <path id="Path_8697" data-name="Path 8697" d="M376.852,312.741c.631.974,1.152,1.206,1.483,1,.341-.231.371-.74-.282-1.709a7.7,7.7,0,0,0-2.04-1.831A6.831,6.831,0,0,0,376.852,312.741Z" transform="translate(-362.585 -284.694)" fill="#050505"/>
      <path id="Path_8698" data-name="Path 8698" d="M374.527,313.5c.265,1.127.689,1.523,1.055,1.45.4-.109.6-.57.323-1.706a7.914,7.914,0,0,0-1.284-2.413A6.854,6.854,0,0,0,374.527,313.5Z" transform="translate(-365.036 -283.723)" fill="#050505"/>
    </g>
    <g id="Group_3814" data-name="Group 3814" transform="translate(375.587 348.506)">
      <g id="Group_3812" data-name="Group 3812">
        <path id="Path_8699" data-name="Path 8699" d="M354.476,338.325a23.507,23.507,0,0,0,26.7,19.789l-6.9-46.493A23.5,23.5,0,0,0,354.476,338.325Z" transform="translate(-354.217 -311.621)" fill="#d95427"/>
      </g>
      <g id="Group_3813" data-name="Group 3813" transform="translate(2.355 2.358)">
        <path id="Path_8700" data-name="Path 8700" d="M355.379,336.571A21.153,21.153,0,0,0,379.407,354.4l-6.218-41.852A21.137,21.137,0,0,0,355.379,336.571Z" transform="translate(-355.144 -312.548)" fill="#ffe7c2"/>
      </g>
      <path id="Path_8701" data-name="Path 8701" d="M357.98,323.033c-1.371.193-1.994-.081-2.08-.562-.056-.458.371-.9,1.75-1.106a9.328,9.328,0,0,1,3.258.364A8.636,8.636,0,0,1,357.98,323.033Z" transform="translate(-351.628 -296.652)" fill="#050505"/>
      <path id="Path_8702" data-name="Path 8702" d="M358.948,325.548c-1.218.659-1.907.626-2.134.2s.038-.974,1.254-1.638a9.192,9.192,0,0,1,3.192-.786A8.372,8.372,0,0,1,358.948,325.548Z" transform="translate(-350.323 -293.559)" fill="#050505"/>
      <path id="Path_8703" data-name="Path 8703" d="M360.5,327.712c-.918,1.043-1.577,1.223-1.925.918-.359-.328-.305-.928.61-1.966a9.215,9.215,0,0,1,2.721-1.821A8.158,8.158,0,0,1,360.5,327.712Z" transform="translate(-347.818 -291.216)" fill="#050505"/>
      <path id="Path_8704" data-name="Path 8704" d="M362.488,329.019c-.511,1.292-1.068,1.7-1.511,1.523-.463-.178-.616-.768-.1-2.068a9.411,9.411,0,0,1,1.943-2.635A8.514,8.514,0,0,1,362.488,329.019Z" transform="translate(-344.438 -289.678)" fill="#050505"/>
      <path id="Path_8705" data-name="Path 8705" d="M364.7,329.3c-.036,1.4-.412,1.961-.9,1.946s-.829-.5-.791-1.907a9.446,9.446,0,0,1,.9-3.138A8.411,8.411,0,0,1,364.7,329.3Z" transform="translate(-340.652 -289.119)" fill="#050505"/>
      <path id="Path_8706" data-name="Path 8706" d="M358.041,318.6c-1.338-.267-1.984-.036-2.1.43-.081.483.323.921,1.694,1.211a9.134,9.134,0,0,0,3.258-.191A8.322,8.322,0,0,0,358.041,318.6Z" transform="translate(-351.57 -301.026)" fill="#050505"/>
      <path id="Path_8707" data-name="Path 8707" d="M359.112,316.728c-1.18-.738-1.862-.712-2.106-.3-.262.4-.028.966,1.152,1.7a9.479,9.479,0,0,0,3.146.946A8.446,8.446,0,0,0,359.112,316.728Z" transform="translate(-350.062 -304.645)" fill="#050505"/>
      <path id="Path_8708" data-name="Path 8708" d="M360.756,315.383c-.872-1.1-1.5-1.315-1.9-1.02-.359.305-.338.9.529,2A9.088,9.088,0,0,0,362,318.325,8.536,8.536,0,0,0,360.756,315.383Z" transform="translate(-347.397 -307.575)" fill="#050505"/>
      <path id="Path_8709" data-name="Path 8709" d="M362.778,314.685c-.453-1.325-.974-1.765-1.429-1.607s-.638.73-.219,2.052a9.336,9.336,0,0,0,1.8,2.736A8.556,8.556,0,0,0,362.778,314.685Z" transform="translate(-343.913 -309.42)" fill="#050505"/>
      <path id="Path_8710" data-name="Path 8710" d="M361.837,322.039c-1.152.163-1.661-.064-1.717-.46s.3-.75,1.437-.923a7.893,7.893,0,0,1,2.729.3A6.874,6.874,0,0,1,361.837,322.039Z" transform="translate(-345.119 -297.733)" fill="#050505"/>
      <path id="Path_8711" data-name="Path 8711" d="M362.653,324.147c-1.02.557-1.577.524-1.775.168s.028-.821,1.048-1.378a7.843,7.843,0,0,1,2.663-.636A6.874,6.874,0,0,1,362.653,324.147Z" transform="translate(-344.035 -295.139)" fill="#050505"/>
      <path id="Path_8712" data-name="Path 8712" d="M363.978,325.967c-.786.867-1.33,1.02-1.635.768-.293-.267-.264-.776.521-1.656a7.438,7.438,0,0,1,2.266-1.513A7.134,7.134,0,0,1,363.978,325.967Z" transform="translate(-341.942 -293.187)" fill="#050505"/>
      <path id="Path_8713" data-name="Path 8713" d="M361.908,318.348c-1.134-.239-1.671-.036-1.757.356s.265.771,1.409,1a7.392,7.392,0,0,0,2.729-.153A6.97,6.97,0,0,0,361.908,318.348Z" transform="translate(-345.076 -301.398)" fill="#050505"/>
      <path id="Path_8714" data-name="Path 8714" d="M362.814,316.776c-.994-.608-1.569-.6-1.788-.27-.2.356-.008.822.982,1.427a7.61,7.61,0,0,0,2.62.791A7.033,7.033,0,0,0,362.814,316.776Z" transform="translate(-343.818 -304.424)" fill="#050505"/>
    </g>
    <g id="Group_3815" data-name="Group 3815" transform="translate(466.934 319.241)">
      <path id="Path_8715" data-name="Path 8715" d="M419.588,314.849a14.727,14.727,0,1,1-14.723-14.735A14.722,14.722,0,0,1,419.588,314.849Z" transform="translate(-390.135 -300.114)" fill="#d95427"/>
      <path id="Path_8716" data-name="Path 8716" d="M417.125,313.919a13.194,13.194,0,1,1-13.187-13.2A13.2,13.2,0,0,1,417.125,313.919Z" transform="translate(-389.208 -299.183)" fill="#ffe7c2"/>
      <path id="Path_8717" data-name="Path 8717" d="M411.216,311.683a9.516,9.516,0,1,1-9.514-9.517A9.524,9.524,0,0,1,411.216,311.683Z" transform="translate(-386.971 -296.947)" fill="#ffefd6"/>
      <path id="Path_8718" data-name="Path 8718" d="M398.564,310.854c-.292,1.643-1.236,2.19-2.276,2.012-1.055-.183-1.737-.905-1.452-2.548s2.492-3.446,2.492-3.446S398.828,309.2,398.564,310.854Z" transform="translate(-382.981 -289.686)" fill="#d95427"/>
      <path id="Path_8719" data-name="Path 8719" d="M400.414,308.247c1.078,1.292.888,2.358.084,3.039s-1.813.755-2.892-.521-1.043-4.12-1.043-4.12S399.316,306.983,400.414,308.247Z" transform="translate(-380.214 -290.035)" fill="#d95427"/>
      <path id="Path_8720" data-name="Path 8720" d="M400.622,305.135c1.651.013,2.358.847,2.358,1.9.02,1.063-.582,1.874-2.246,1.877s-3.838-1.849-3.838-1.849S398.936,305.178,400.622,305.135Z" transform="translate(-379.701 -292.365)" fill="#d95427"/>
      <path id="Path_8721" data-name="Path 8721" d="M397.447,304.185c1.086-1.274,2.185-1.274,2.986-.6.822.676,1.058,1.648-.015,2.935s-3.873,1.74-3.873,1.74S396.412,305.495,397.447,304.185Z" transform="translate(-380.252 -295.449)" fill="#d95427"/>
      <path id="Path_8722" data-name="Path 8722" d="M394.781,305.3c-.277-1.638.425-2.48,1.462-2.676s1.943.262,2.235,1.9-1.167,4.09-1.167,4.09S395.112,306.939,394.781,305.3Z" transform="translate(-383.059 -296.308)" fill="#d95427"/>
      <path id="Path_8723" data-name="Path 8723" d="M394.271,307.654c-1.445-.837-1.643-1.912-1.1-2.826.521-.938,1.445-1.33,2.889-.5,1.447.847,2.378,3.517,2.378,3.517S395.738,308.465,394.271,307.654Z" transform="translate(-385.878 -294.312)" fill="#d95427"/>
      <path id="Path_8724" data-name="Path 8724" d="M395.75,309.7c-1.577.557-2.523.02-2.882-.974-.389-.994-.1-1.948,1.473-2.531s4.224.427,4.224.427S397.3,309.1,395.75,309.7Z" transform="translate(-386.155 -291.003)" fill="#d95427"/>
      <path id="Path_8725" data-name="Path 8725" d="M398.425,306.852a1.556,1.556,0,1,1-1.549-1.556A1.555,1.555,0,0,1,398.425,306.852Z" transform="translate(-382.146 -292.117)" fill="#d95427"/>
    </g>
    <g id="Group_3820" data-name="Group 3820" transform="translate(399.266 297.563)">
      <g id="Group_3818" data-name="Group 3818" transform="translate(8.988)">
        <path id="Path_8734" data-name="Path 8734" d="M365.726,291.476c.038.7.079,1.414.17,2.139a25.639,25.639,0,0,0,3.07,9.415,49.044,49.044,0,0,1,6.236-1.261l-1.511-11.31Z" transform="translate(-365.726 -289.449)" fill="#e38900"/>
        <path id="Path_8735" data-name="Path 8735" d="M370.369,302.381a47.636,47.636,0,0,1,6.361-.425,25.7,25.7,0,0,0,.476-9.888c-.094-.692-.247-1.353-.389-2.007l-7.958,1.01Z" transform="translate(-360.893 -290.062)" fill="#e38900"/>
      </g>
      <g id="Group_3819" data-name="Group 3819" transform="translate(0 9.75)">
        <path id="Path_8736" data-name="Path 8736" d="M362.324,303.184a17.834,17.834,0,0,0,7.271,12.065,19.712,19.712,0,0,0,14.26,3.571l-3.2-23.914a49.045,49.045,0,0,0-6.236,1.261c-5.229,1.437-9.6,1.49-12.228,3.97C362.217,300.453,362.273,302.879,362.324,303.184Z" transform="translate(-362.192 -292.337)" fill="#ebe6cc"/>
        <path id="Path_8737" data-name="Path 8737" d="M369.452,296.465l3.2,23.914h0a19.713,19.713,0,0,0,12.836-7.2,17.867,17.867,0,0,0,3.843-13.558c-.048-.3-1.218-4.285-1.274-4.6-3.192-1.709-7.256-1.264-12.536-.086-3.133.71-3.881,1.231-6.068,1.526Z" transform="translate(-350.988 -293.896)" fill="#e7debd"/>
      </g>
    </g>
    <g id="Group_3821" data-name="Group 3821" transform="translate(415.111 382.946)">
      <path id="Path_8738" data-name="Path 8738" d="M406.925,343.746a18.583,18.583,0,1,1-18.586-18.583A18.594,18.594,0,0,1,406.925,343.746Z" transform="translate(-369.758 -325.163)" fill="#d95427"/>
      <path id="Path_8739" data-name="Path 8739" d="M403.8,342.574a16.64,16.64,0,1,1-16.638-16.651A16.634,16.634,0,0,1,403.8,342.574Z" transform="translate(-368.578 -323.639)" fill="#ffe7c2"/>
      <path id="Path_8740" data-name="Path 8740" d="M396.34,339.756a12,12,0,1,1-11.994-12.007A12,12,0,0,1,396.34,339.756Z" transform="translate(-365.766 -321.172)" fill="#ffefd6"/>
      <path id="Path_8741" data-name="Path 8741" d="M380.4,338.7c-.376,2.078-1.556,2.772-2.882,2.543s-2.19-1.142-1.844-3.22c.389-2.073,3.156-4.344,3.156-4.344S380.725,336.619,380.4,338.7Z" transform="translate(-360.738 -312.016)" fill="#d95427"/>
      <path id="Path_8742" data-name="Path 8742" d="M382.732,335.417c1.343,1.628,1.106,2.973.087,3.835-1.02.885-2.274.954-3.637-.664s-1.312-5.191-1.312-5.191S381.338,333.828,382.732,335.417Z" transform="translate(-357.241 -312.454)" fill="#d95427"/>
      <path id="Path_8743" data-name="Path 8743" d="M382.978,331.5c2.1.015,2.986,1.066,2.986,2.385.015,1.351-.748,2.37-2.846,2.378-2.106-.008-4.825-2.332-4.825-2.332S380.852,331.537,382.978,331.5Z" transform="translate(-356.586 -315.39)" fill="#d95427"/>
      <path id="Path_8744" data-name="Path 8744" d="M379,330.295c1.358-1.6,2.736-1.61,3.761-.748,1.035.847,1.328,2.08-.023,3.7-1.371,1.607-4.891,2.195-4.891,2.195S377.667,331.943,379,330.295Z" transform="translate(-357.29 -319.28)" fill="#d95427"/>
      <path id="Path_8745" data-name="Path 8745" d="M375.622,331.691c-.351-2.073.529-3.131,1.841-3.365,1.312-.249,2.444.326,2.813,2.386.371,2.1-1.462,5.165-1.462,5.165S376.034,333.769,375.622,331.691Z" transform="translate(-360.828 -320.366)" fill="#d95427"/>
      <path id="Path_8746" data-name="Path 8746" d="M374.972,334.668c-1.811-1.058-2.06-2.414-1.391-3.568.654-1.177,1.818-1.668,3.647-.623,1.816,1.061,3.006,4.43,3.006,4.43S376.831,335.7,374.972,334.668Z" transform="translate(-364.382 -317.847)" fill="#d95427"/>
      <path id="Path_8747" data-name="Path 8747" d="M376.841,337.249c-1.986.712-3.176.025-3.639-1.239-.483-1.236-.109-2.452,1.864-3.187,1.989-.71,5.333.544,5.333.544S378.8,336.491,376.841,337.249Z" transform="translate(-364.737 -313.676)" fill="#d95427"/>
      <path id="Path_8748" data-name="Path 8748" d="M380.22,333.666a1.965,1.965,0,1,1-1.963-1.971A1.967,1.967,0,0,1,380.22,333.666Z" transform="translate(-359.676 -315.082)" fill="#d95427"/>
    </g>
    <g id="Group_3822" data-name="Group 3822" transform="translate(344.587 413.053)">
      <path id="Path_8749" data-name="Path 8749" d="M399.265,379.6h41.526a63.251,63.251,0,0,0,53.276-29.146H345.989A63.277,63.277,0,0,0,399.265,379.6Z" transform="translate(-335.915 -316.246)" fill="#d6d6d6"/>
      <path id="Path_8750" data-name="Path 8750" d="M343.505,345.379a62.738,62.738,0,0,0,3.382,7.828H500.843a63.9,63.9,0,0,0,3.383-7.828Z" transform="translate(-339.749 -324.072)" fill="#5e55a5"/>
      <path id="Path_8751" data-name="Path 8751" d="M510.253,337H342.028a63.479,63.479,0,0,0,2.18,16.241H508.074A63.14,63.14,0,0,0,510.253,337Z" transform="translate(-342.028 -337.001)" fill="#d95427"/>
      <path id="Path_8752" data-name="Path 8752" d="M506.751,343.387H342.885q.683,2.583,1.577,5.066h160.72C505.777,346.8,506.3,345.109,506.751,343.387Z" transform="translate(-340.705 -327.146)" fill="#d6d6d6"/>
      <path id="Path_8753" data-name="Path 8753" d="M347.77,353.526H495.848c1.048-1.643,2.04-3.327,2.943-5.069H344.835C345.73,350.2,346.722,351.883,347.77,353.526Z" transform="translate(-337.696 -319.322)" fill="#d6d6d6"/>
    </g>
    <g id="Group_3823" data-name="Group 3823" transform="translate(379.011 333.26)">
      <path id="Path_8754" data-name="Path 8754" d="M371.917,319.985a9.518,9.518,0,0,1-9.517,9.522v3.678a13.2,13.2,0,0,0,0-26.4v3.693A9.51,9.51,0,0,1,371.917,319.985Z" transform="translate(-349.203 -306.781)" fill="#5e55a5"/>
      <path id="Path_8755" data-name="Path 8755" d="M360.894,319.985a9.521,9.521,0,0,0,9.514,9.522v3.678a13.2,13.2,0,0,1,0-26.4v3.693A9.512,9.512,0,0,0,360.894,319.985Z" transform="translate(-357.211 -306.781)" fill="#5e55a5"/>
    </g>
    <g id="Group_3824" data-name="Group 3824" transform="translate(455.106 362.601)">
      <path id="Path_8756" data-name="Path 8756" d="M394.9,300.492a9.506,9.506,0,0,1-9.512,9.517v3.68a13.2,13.2,0,0,0,0-26.394v3.683A9.509,9.509,0,0,1,394.9,300.492Z" transform="translate(-372.193 -287.295)" fill="#5e55a5"/>
      <path id="Path_8757" data-name="Path 8757" d="M383.881,300.492a9.509,9.509,0,0,0,9.509,9.517v3.68a13.2,13.2,0,0,1,0-26.394v3.683A9.512,9.512,0,0,0,383.881,300.492Z" transform="translate(-380.198 -287.295)" fill="#5e55a5"/>
    </g>
    <path id="Path_8758" data-name="Path 8758" d="M378.216,329.211a9.524,9.524,0,0,1-9.519,9.514V342.4a13.2,13.2,0,1,0,0-26.394v3.683A9.518,9.518,0,0,1,378.216,329.211Z" transform="translate(36.698 46.593)" fill="#5e55a5"/>
  </g>
</svg>
