<svg xmlns="http://www.w3.org/2000/svg" width="629" height="502" viewBox="0 0 629 502">
  <g id="bg-gallery" transform="translate(-1082.402 -218)" opacity="0.5">
    <g id="Group_6152" data-name="Group 6152" transform="translate(1488.402 218)">
      <rect id="Rectangle_5498" data-name="Rectangle 5498" width="55" height="32" transform="translate(168)" fill="#d95427"/>
      <rect id="Rectangle_5499" data-name="Rectangle 5499" width="56" height="32" transform="translate(112)" fill="#fff"/>
      <rect id="Rectangle_5500" data-name="Rectangle 5500" width="56" height="32" transform="translate(56)" fill="#d95427"/>
      <rect id="Rectangle_5501" data-name="Rectangle 5501" width="56" height="32" fill="#fff"/>
      <rect id="Rectangle_5502" data-name="Rectangle 5502" width="55" height="32" transform="translate(168 32)" fill="#fff"/>
      <rect id="Rectangle_5503" data-name="Rectangle 5503" width="56" height="32" transform="translate(112 32)" fill="#d95427"/>
      <rect id="Rectangle_5504" data-name="Rectangle 5504" width="56" height="32" transform="translate(56 32)" fill="#fff"/>
      <rect id="Rectangle_5505" data-name="Rectangle 5505" width="56" height="32" transform="translate(0 32)" fill="#d95427"/>
      <rect id="Rectangle_5506" data-name="Rectangle 5506" width="55" height="32" transform="translate(168 64)" fill="#d95427"/>
      <rect id="Rectangle_5507" data-name="Rectangle 5507" width="56" height="32" transform="translate(112 64)" fill="#fff"/>
      <rect id="Rectangle_5508" data-name="Rectangle 5508" width="56" height="32" transform="translate(56 64)" fill="#d95427"/>
      <rect id="Rectangle_5509" data-name="Rectangle 5509" width="56" height="32" transform="translate(0 64)" fill="#fff"/>
      <rect id="Rectangle_5510" data-name="Rectangle 5510" width="55" height="32" transform="translate(168 96)" fill="#fff"/>
      <rect id="Rectangle_5511" data-name="Rectangle 5511" width="56" height="32" transform="translate(112 96)" fill="#d95427"/>
      <rect id="Rectangle_5512" data-name="Rectangle 5512" width="56" height="32" transform="translate(56 96)" fill="#fff"/>
      <rect id="Rectangle_5513" data-name="Rectangle 5513" width="56" height="32" transform="translate(0 96)" fill="#d95427"/>
    </g>
    <g id="Group_6153" data-name="Group 6153" transform="translate(1488.402 343)">
      <rect id="Rectangle_5498-2" data-name="Rectangle 5498" width="55" height="32" transform="translate(168)" fill="#d95427"/>
      <rect id="Rectangle_5499-2" data-name="Rectangle 5499" width="56" height="32" transform="translate(112)" fill="#fff"/>
      <rect id="Rectangle_5500-2" data-name="Rectangle 5500" width="56" height="32" transform="translate(56)" fill="#d95427"/>
      <rect id="Rectangle_5501-2" data-name="Rectangle 5501" width="56" height="32" fill="#fff"/>
      <rect id="Rectangle_5502-2" data-name="Rectangle 5502" width="55" height="32" transform="translate(168 32)" fill="#fff"/>
      <rect id="Rectangle_5503-2" data-name="Rectangle 5503" width="56" height="32" transform="translate(112 32)" fill="#d95427"/>
      <rect id="Rectangle_5504-2" data-name="Rectangle 5504" width="56" height="32" transform="translate(56 32)" fill="#fff"/>
      <rect id="Rectangle_5505-2" data-name="Rectangle 5505" width="56" height="32" transform="translate(0 32)" fill="#d95427"/>
      <rect id="Rectangle_5506-2" data-name="Rectangle 5506" width="55" height="32" transform="translate(168 64)" fill="#d95427"/>
      <rect id="Rectangle_5507-2" data-name="Rectangle 5507" width="56" height="32" transform="translate(112 64)" fill="#fff"/>
      <rect id="Rectangle_5508-2" data-name="Rectangle 5508" width="56" height="32" transform="translate(56 64)" fill="#d95427"/>
      <rect id="Rectangle_5509-2" data-name="Rectangle 5509" width="56" height="32" transform="translate(0 64)" fill="#fff"/>
      <rect id="Rectangle_5510-2" data-name="Rectangle 5510" width="55" height="32" transform="translate(168 96)" fill="#fff"/>
      <rect id="Rectangle_5511-2" data-name="Rectangle 5511" width="56" height="32" transform="translate(112 96)" fill="#d95427"/>
      <rect id="Rectangle_5512-2" data-name="Rectangle 5512" width="56" height="32" transform="translate(56 96)" fill="#fff"/>
      <rect id="Rectangle_5513-2" data-name="Rectangle 5513" width="56" height="32" transform="translate(0 96)" fill="#d95427"/>
    </g>
    <g id="Group_6154" data-name="Group 6154" transform="translate(1488.402 467)">
      <rect id="Rectangle_5498-3" data-name="Rectangle 5498" width="55" height="32" transform="translate(168)" fill="#d95427"/>
      <rect id="Rectangle_5499-3" data-name="Rectangle 5499" width="56" height="32" transform="translate(112)" fill="#fff"/>
      <rect id="Rectangle_5500-3" data-name="Rectangle 5500" width="56" height="32" transform="translate(56)" fill="#d95427"/>
      <rect id="Rectangle_5501-3" data-name="Rectangle 5501" width="56" height="32" fill="#fff"/>
      <rect id="Rectangle_5502-3" data-name="Rectangle 5502" width="55" height="32" transform="translate(168 32)" fill="#fff"/>
      <rect id="Rectangle_5503-3" data-name="Rectangle 5503" width="56" height="32" transform="translate(112 32)" fill="#d95427"/>
      <rect id="Rectangle_5504-3" data-name="Rectangle 5504" width="56" height="32" transform="translate(56 32)" fill="#fff"/>
      <rect id="Rectangle_5505-3" data-name="Rectangle 5505" width="56" height="32" transform="translate(0 32)" fill="#d95427"/>
      <rect id="Rectangle_5506-3" data-name="Rectangle 5506" width="55" height="32" transform="translate(168 64)" fill="#d95427"/>
      <rect id="Rectangle_5507-3" data-name="Rectangle 5507" width="56" height="32" transform="translate(112 64)" fill="#fff"/>
      <rect id="Rectangle_5508-3" data-name="Rectangle 5508" width="56" height="32" transform="translate(56 64)" fill="#d95427"/>
      <rect id="Rectangle_5509-3" data-name="Rectangle 5509" width="56" height="32" transform="translate(0 64)" fill="#fff"/>
      <rect id="Rectangle_5510-3" data-name="Rectangle 5510" width="55" height="32" transform="translate(168 96)" fill="#fff"/>
      <rect id="Rectangle_5511-3" data-name="Rectangle 5511" width="56" height="32" transform="translate(112 96)" fill="#d95427"/>
      <rect id="Rectangle_5512-3" data-name="Rectangle 5512" width="56" height="32" transform="translate(56 96)" fill="#fff"/>
      <rect id="Rectangle_5513-3" data-name="Rectangle 5513" width="56" height="32" transform="translate(0 96)" fill="#d95427"/>
    </g>
    <g id="Group_6155" data-name="Group 6155" transform="translate(1488.402 592)">
      <rect id="Rectangle_5498-4" data-name="Rectangle 5498" width="55" height="32" transform="translate(168)" fill="#5e55a5"/>
      <rect id="Rectangle_5499-4" data-name="Rectangle 5499" width="56" height="32" transform="translate(112)" fill="#fff"/>
      <rect id="Rectangle_5500-4" data-name="Rectangle 5500" width="56" height="32" transform="translate(56)" fill="#5e55a5"/>
      <rect id="Rectangle_5501-4" data-name="Rectangle 5501" width="56" height="32" fill="#fff"/>
      <rect id="Rectangle_5502-4" data-name="Rectangle 5502" width="55" height="32" transform="translate(168 32)" fill="#fff"/>
      <rect id="Rectangle_5503-4" data-name="Rectangle 5503" width="56" height="32" transform="translate(112 32)" fill="#5e55a5"/>
      <rect id="Rectangle_5504-4" data-name="Rectangle 5504" width="56" height="32" transform="translate(56 32)" fill="#fff"/>
      <rect id="Rectangle_5505-4" data-name="Rectangle 5505" width="56" height="32" transform="translate(0 32)" fill="#5e55a5"/>
      <rect id="Rectangle_5506-4" data-name="Rectangle 5506" width="55" height="32" transform="translate(168 64)" fill="#5e55a5"/>
      <rect id="Rectangle_5507-4" data-name="Rectangle 5507" width="56" height="32" transform="translate(112 64)" fill="#fff"/>
      <rect id="Rectangle_5508-4" data-name="Rectangle 5508" width="56" height="32" transform="translate(56 64)" fill="#5e55a5"/>
      <rect id="Rectangle_5509-4" data-name="Rectangle 5509" width="56" height="32" transform="translate(0 64)" fill="#fff"/>
      <rect id="Rectangle_5510-4" data-name="Rectangle 5510" width="55" height="32" transform="translate(168 96)" fill="#fff"/>
      <rect id="Rectangle_5511-4" data-name="Rectangle 5511" width="56" height="32" transform="translate(112 96)" fill="#5e55a5"/>
      <rect id="Rectangle_5512-4" data-name="Rectangle 5512" width="56" height="32" transform="translate(56 96)" fill="#fff"/>
      <rect id="Rectangle_5513-4" data-name="Rectangle 5513" width="56" height="32" transform="translate(0 96)" fill="#5e55a5"/>
    </g>
    <g id="Group_6156" data-name="Group 6156" transform="translate(1284.931 218)">
      <rect id="Rectangle_5498-5" data-name="Rectangle 5498" width="55" height="32" transform="translate(168.471)" fill="#d95427"/>
      <rect id="Rectangle_5499-5" data-name="Rectangle 5499" width="56" height="32" transform="translate(112.471)" fill="#fff"/>
      <rect id="Rectangle_5500-5" data-name="Rectangle 5500" width="56" height="32" transform="translate(56.471)" fill="#d95427"/>
      <rect id="Rectangle_5501-5" data-name="Rectangle 5501" width="56" height="32" transform="translate(0.471)" fill="#fff"/>
      <rect id="Rectangle_5502-5" data-name="Rectangle 5502" width="55" height="32" transform="translate(168.471 32)" fill="#fff"/>
      <rect id="Rectangle_5503-5" data-name="Rectangle 5503" width="56" height="32" transform="translate(112.471 32)" fill="#d95427"/>
      <rect id="Rectangle_5504-5" data-name="Rectangle 5504" width="56" height="32" transform="translate(56.471 32)" fill="#fff"/>
      <rect id="Rectangle_5505-5" data-name="Rectangle 5505" width="56" height="32" transform="translate(0.471 32)" fill="#d95427"/>
      <rect id="Rectangle_5506-5" data-name="Rectangle 5506" width="55" height="32" transform="translate(168.471 64)" fill="#d95427"/>
      <rect id="Rectangle_5507-5" data-name="Rectangle 5507" width="56" height="32" transform="translate(112.471 64)" fill="#fff"/>
      <rect id="Rectangle_5508-5" data-name="Rectangle 5508" width="56" height="32" transform="translate(56.471 64)" fill="#d95427"/>
      <rect id="Rectangle_5509-5" data-name="Rectangle 5509" width="56" height="32" transform="translate(0.471 64)" fill="#fff"/>
      <rect id="Rectangle_5510-5" data-name="Rectangle 5510" width="55" height="32" transform="translate(168.471 96)" fill="#fff"/>
      <rect id="Rectangle_5511-5" data-name="Rectangle 5511" width="56" height="32" transform="translate(112.471 96)" fill="#d95427"/>
      <rect id="Rectangle_5512-5" data-name="Rectangle 5512" width="56" height="32" transform="translate(56.471 96)" fill="#fff"/>
      <rect id="Rectangle_5513-5" data-name="Rectangle 5513" width="56" height="32" transform="translate(0.471 96)" fill="#d95427"/>
    </g>
    <g id="Group_6157" data-name="Group 6157" transform="translate(1284.931 343)">
      <rect id="Rectangle_5498-6" data-name="Rectangle 5498" width="55" height="32" transform="translate(168.471)" fill="#d95427"/>
      <rect id="Rectangle_5499-6" data-name="Rectangle 5499" width="56" height="32" transform="translate(112.471)" fill="#fff"/>
      <rect id="Rectangle_5500-6" data-name="Rectangle 5500" width="56" height="32" transform="translate(56.471)" fill="#d95427"/>
      <rect id="Rectangle_5501-6" data-name="Rectangle 5501" width="56" height="32" transform="translate(0.471)" fill="#fff"/>
      <rect id="Rectangle_5502-6" data-name="Rectangle 5502" width="55" height="32" transform="translate(168.471 32)" fill="#fff"/>
      <rect id="Rectangle_5503-6" data-name="Rectangle 5503" width="56" height="32" transform="translate(112.471 32)" fill="#d95427"/>
      <rect id="Rectangle_5504-6" data-name="Rectangle 5504" width="56" height="32" transform="translate(56.471 32)" fill="#fff"/>
      <rect id="Rectangle_5505-6" data-name="Rectangle 5505" width="56" height="32" transform="translate(0.471 32)" fill="#d95427"/>
      <rect id="Rectangle_5506-6" data-name="Rectangle 5506" width="55" height="32" transform="translate(168.471 64)" fill="#d95427"/>
      <rect id="Rectangle_5507-6" data-name="Rectangle 5507" width="56" height="32" transform="translate(112.471 64)" fill="#fff"/>
      <rect id="Rectangle_5508-6" data-name="Rectangle 5508" width="56" height="32" transform="translate(56.471 64)" fill="#d95427"/>
      <rect id="Rectangle_5509-6" data-name="Rectangle 5509" width="56" height="32" transform="translate(0.471 64)" fill="#fff"/>
      <rect id="Rectangle_5510-6" data-name="Rectangle 5510" width="55" height="32" transform="translate(168.471 96)" fill="#fff"/>
      <rect id="Rectangle_5511-6" data-name="Rectangle 5511" width="56" height="32" transform="translate(112.471 96)" fill="#d95427"/>
      <rect id="Rectangle_5512-6" data-name="Rectangle 5512" width="56" height="32" transform="translate(56.471 96)" fill="#fff"/>
      <rect id="Rectangle_5513-6" data-name="Rectangle 5513" width="56" height="32" transform="translate(0.471 96)" fill="#d95427"/>
    </g>
    <g id="Group_6158" data-name="Group 6158" transform="translate(1284.931 467)">
      <rect id="Rectangle_5498-7" data-name="Rectangle 5498" width="55" height="32" transform="translate(168.471)" fill="#d95427"/>
      <rect id="Rectangle_5499-7" data-name="Rectangle 5499" width="56" height="32" transform="translate(112.471)" fill="#fff"/>
      <rect id="Rectangle_5500-7" data-name="Rectangle 5500" width="56" height="32" transform="translate(56.471)" fill="#d95427"/>
      <rect id="Rectangle_5501-7" data-name="Rectangle 5501" width="56" height="32" transform="translate(0.471)" fill="#fff"/>
      <rect id="Rectangle_5502-7" data-name="Rectangle 5502" width="55" height="32" transform="translate(168.471 32)" fill="#fff"/>
      <rect id="Rectangle_5503-7" data-name="Rectangle 5503" width="56" height="32" transform="translate(112.471 32)" fill="#d95427"/>
      <rect id="Rectangle_5504-7" data-name="Rectangle 5504" width="56" height="32" transform="translate(56.471 32)" fill="#fff"/>
      <rect id="Rectangle_5505-7" data-name="Rectangle 5505" width="56" height="32" transform="translate(0.471 32)" fill="#d95427"/>
      <rect id="Rectangle_5506-7" data-name="Rectangle 5506" width="55" height="32" transform="translate(168.471 64)" fill="#d95427"/>
      <rect id="Rectangle_5507-7" data-name="Rectangle 5507" width="56" height="32" transform="translate(112.471 64)" fill="#fff"/>
      <rect id="Rectangle_5508-7" data-name="Rectangle 5508" width="56" height="32" transform="translate(56.471 64)" fill="#d95427"/>
      <rect id="Rectangle_5509-7" data-name="Rectangle 5509" width="56" height="32" transform="translate(0.471 64)" fill="#fff"/>
      <rect id="Rectangle_5510-7" data-name="Rectangle 5510" width="55" height="32" transform="translate(168.471 96)" fill="#fff"/>
      <rect id="Rectangle_5511-7" data-name="Rectangle 5511" width="56" height="32" transform="translate(112.471 96)" fill="#d95427"/>
      <rect id="Rectangle_5512-7" data-name="Rectangle 5512" width="56" height="32" transform="translate(56.471 96)" fill="#fff"/>
      <rect id="Rectangle_5513-7" data-name="Rectangle 5513" width="56" height="32" transform="translate(0.471 96)" fill="#d95427"/>
    </g>
    <g id="Group_6159" data-name="Group 6159" transform="translate(1284.931 592)">
      <rect id="Rectangle_5498-8" data-name="Rectangle 5498" width="55" height="32" transform="translate(168.471)" fill="#5e55a5"/>
      <rect id="Rectangle_5499-8" data-name="Rectangle 5499" width="56" height="32" transform="translate(112.471)" fill="#fff"/>
      <rect id="Rectangle_5500-8" data-name="Rectangle 5500" width="56" height="32" transform="translate(56.471)" fill="#5e55a5"/>
      <rect id="Rectangle_5501-8" data-name="Rectangle 5501" width="56" height="32" transform="translate(0.471)" fill="#fff"/>
      <rect id="Rectangle_5502-8" data-name="Rectangle 5502" width="55" height="32" transform="translate(168.471 32)" fill="#fff"/>
      <rect id="Rectangle_5503-8" data-name="Rectangle 5503" width="56" height="32" transform="translate(112.471 32)" fill="#5e55a5"/>
      <rect id="Rectangle_5504-8" data-name="Rectangle 5504" width="56" height="32" transform="translate(56.471 32)" fill="#fff"/>
      <rect id="Rectangle_5505-8" data-name="Rectangle 5505" width="56" height="32" transform="translate(0.471 32)" fill="#5e55a5"/>
      <rect id="Rectangle_5506-8" data-name="Rectangle 5506" width="55" height="32" transform="translate(168.471 64)" fill="#5e55a5"/>
      <rect id="Rectangle_5507-8" data-name="Rectangle 5507" width="56" height="32" transform="translate(112.471 64)" fill="#fff"/>
      <rect id="Rectangle_5508-8" data-name="Rectangle 5508" width="56" height="32" transform="translate(56.471 64)" fill="#5e55a5"/>
      <rect id="Rectangle_5509-8" data-name="Rectangle 5509" width="56" height="32" transform="translate(0.471 64)" fill="#fff"/>
      <rect id="Rectangle_5510-8" data-name="Rectangle 5510" width="55" height="32" transform="translate(168.471 96)" fill="#fff"/>
      <rect id="Rectangle_5511-8" data-name="Rectangle 5511" width="56" height="32" transform="translate(112.471 96)" fill="#5e55a5"/>
      <rect id="Rectangle_5512-8" data-name="Rectangle 5512" width="56" height="32" transform="translate(56.471 96)" fill="#fff"/>
      <rect id="Rectangle_5513-8" data-name="Rectangle 5513" width="56" height="32" transform="translate(0.471 96)" fill="#5e55a5"/>
    </g>
    <g id="Group_6160" data-name="Group 6160" transform="translate(1082.402 218)">
      <rect id="Rectangle_5498-9" data-name="Rectangle 5498" width="55" height="32" transform="translate(168)" fill="#d95427"/>
      <rect id="Rectangle_5499-9" data-name="Rectangle 5499" width="56" height="32" transform="translate(112)" fill="#fff"/>
      <rect id="Rectangle_5500-9" data-name="Rectangle 5500" width="56" height="32" transform="translate(56)" fill="#d95427"/>
      <rect id="Rectangle_5501-9" data-name="Rectangle 5501" width="56" height="32" fill="#fff"/>
      <rect id="Rectangle_5502-9" data-name="Rectangle 5502" width="55" height="32" transform="translate(168 32)" fill="#fff"/>
      <rect id="Rectangle_5503-9" data-name="Rectangle 5503" width="56" height="32" transform="translate(112 32)" fill="#d95427"/>
      <rect id="Rectangle_5504-9" data-name="Rectangle 5504" width="56" height="32" transform="translate(56 32)" fill="#fff"/>
      <rect id="Rectangle_5505-9" data-name="Rectangle 5505" width="56" height="32" transform="translate(0 32)" fill="#d95427"/>
      <rect id="Rectangle_5506-9" data-name="Rectangle 5506" width="55" height="32" transform="translate(168 64)" fill="#d95427"/>
      <rect id="Rectangle_5507-9" data-name="Rectangle 5507" width="56" height="32" transform="translate(112 64)" fill="#fff"/>
      <rect id="Rectangle_5508-9" data-name="Rectangle 5508" width="56" height="32" transform="translate(56 64)" fill="#d95427"/>
      <rect id="Rectangle_5509-9" data-name="Rectangle 5509" width="56" height="32" transform="translate(0 64)" fill="#fff"/>
      <rect id="Rectangle_5510-9" data-name="Rectangle 5510" width="55" height="32" transform="translate(168 96)" fill="#fff"/>
      <rect id="Rectangle_5511-9" data-name="Rectangle 5511" width="56" height="32" transform="translate(112 96)" fill="#d95427"/>
      <rect id="Rectangle_5512-9" data-name="Rectangle 5512" width="56" height="32" transform="translate(56 96)" fill="#fff"/>
      <rect id="Rectangle_5513-9" data-name="Rectangle 5513" width="56" height="32" transform="translate(0 96)" fill="#d95427"/>
    </g>
    <g id="Group_6161" data-name="Group 6161" transform="translate(1082.402 343)">
      <rect id="Rectangle_5498-10" data-name="Rectangle 5498" width="55" height="32" transform="translate(168)" fill="#d95427"/>
      <rect id="Rectangle_5499-10" data-name="Rectangle 5499" width="56" height="32" transform="translate(112)" fill="#fff"/>
      <rect id="Rectangle_5500-10" data-name="Rectangle 5500" width="56" height="32" transform="translate(56)" fill="#d95427"/>
      <rect id="Rectangle_5501-10" data-name="Rectangle 5501" width="56" height="32" fill="#fff"/>
      <rect id="Rectangle_5502-10" data-name="Rectangle 5502" width="55" height="32" transform="translate(168 32)" fill="#fff"/>
      <rect id="Rectangle_5503-10" data-name="Rectangle 5503" width="56" height="32" transform="translate(112 32)" fill="#d95427"/>
      <rect id="Rectangle_5504-10" data-name="Rectangle 5504" width="56" height="32" transform="translate(56 32)" fill="#fff"/>
      <rect id="Rectangle_5505-10" data-name="Rectangle 5505" width="56" height="32" transform="translate(0 32)" fill="#d95427"/>
      <rect id="Rectangle_5506-10" data-name="Rectangle 5506" width="55" height="32" transform="translate(168 64)" fill="#d95427"/>
      <rect id="Rectangle_5507-10" data-name="Rectangle 5507" width="56" height="32" transform="translate(112 64)" fill="#fff"/>
      <rect id="Rectangle_5508-10" data-name="Rectangle 5508" width="56" height="32" transform="translate(56 64)" fill="#d95427"/>
      <rect id="Rectangle_5509-10" data-name="Rectangle 5509" width="56" height="32" transform="translate(0 64)" fill="#fff"/>
      <rect id="Rectangle_5510-10" data-name="Rectangle 5510" width="55" height="32" transform="translate(168 96)" fill="#fff"/>
      <rect id="Rectangle_5511-10" data-name="Rectangle 5511" width="56" height="32" transform="translate(112 96)" fill="#d95427"/>
      <rect id="Rectangle_5512-10" data-name="Rectangle 5512" width="56" height="32" transform="translate(56 96)" fill="#fff"/>
      <rect id="Rectangle_5513-10" data-name="Rectangle 5513" width="56" height="32" transform="translate(0 96)" fill="#d95427"/>
    </g>
    <g id="Group_6162" data-name="Group 6162" transform="translate(1082.402 467)">
      <rect id="Rectangle_5498-11" data-name="Rectangle 5498" width="55" height="32" transform="translate(168)" fill="#d95427"/>
      <rect id="Rectangle_5499-11" data-name="Rectangle 5499" width="56" height="32" transform="translate(112)" fill="#fff"/>
      <rect id="Rectangle_5500-11" data-name="Rectangle 5500" width="56" height="32" transform="translate(56)" fill="#d95427"/>
      <rect id="Rectangle_5501-11" data-name="Rectangle 5501" width="56" height="32" fill="#fff"/>
      <rect id="Rectangle_5502-11" data-name="Rectangle 5502" width="55" height="32" transform="translate(168 32)" fill="#fff"/>
      <rect id="Rectangle_5503-11" data-name="Rectangle 5503" width="56" height="32" transform="translate(112 32)" fill="#d95427"/>
      <rect id="Rectangle_5504-11" data-name="Rectangle 5504" width="56" height="32" transform="translate(56 32)" fill="#fff"/>
      <rect id="Rectangle_5505-11" data-name="Rectangle 5505" width="56" height="32" transform="translate(0 32)" fill="#d95427"/>
      <rect id="Rectangle_5506-11" data-name="Rectangle 5506" width="55" height="32" transform="translate(168 64)" fill="#d95427"/>
      <rect id="Rectangle_5507-11" data-name="Rectangle 5507" width="56" height="32" transform="translate(112 64)" fill="#fff"/>
      <rect id="Rectangle_5508-11" data-name="Rectangle 5508" width="56" height="32" transform="translate(56 64)" fill="#d95427"/>
      <rect id="Rectangle_5509-11" data-name="Rectangle 5509" width="56" height="32" transform="translate(0 64)" fill="#fff"/>
      <rect id="Rectangle_5510-11" data-name="Rectangle 5510" width="55" height="32" transform="translate(168 96)" fill="#fff"/>
      <rect id="Rectangle_5511-11" data-name="Rectangle 5511" width="56" height="32" transform="translate(112 96)" fill="#d95427"/>
      <rect id="Rectangle_5512-11" data-name="Rectangle 5512" width="56" height="32" transform="translate(56 96)" fill="#fff"/>
      <rect id="Rectangle_5513-11" data-name="Rectangle 5513" width="56" height="32" transform="translate(0 96)" fill="#d95427"/>
    </g>
    <g id="Group_6163" data-name="Group 6163" transform="translate(1082.402 592)">
      <rect id="Rectangle_5498-12" data-name="Rectangle 5498" width="55" height="32" transform="translate(168)" fill="#5e55a5"/>
      <rect id="Rectangle_5499-12" data-name="Rectangle 5499" width="56" height="32" transform="translate(112)" fill="#fff"/>
      <rect id="Rectangle_5500-12" data-name="Rectangle 5500" width="56" height="32" transform="translate(56)" fill="#5e55a5"/>
      <rect id="Rectangle_5501-12" data-name="Rectangle 5501" width="56" height="32" fill="#fff"/>
      <rect id="Rectangle_5502-12" data-name="Rectangle 5502" width="55" height="32" transform="translate(168 32)" fill="#fff"/>
      <rect id="Rectangle_5503-12" data-name="Rectangle 5503" width="56" height="32" transform="translate(112 32)" fill="#5e55a5"/>
      <rect id="Rectangle_5504-12" data-name="Rectangle 5504" width="56" height="32" transform="translate(56 32)" fill="#fff"/>
      <rect id="Rectangle_5505-12" data-name="Rectangle 5505" width="56" height="32" transform="translate(0 32)" fill="#5e55a5"/>
      <rect id="Rectangle_5506-12" data-name="Rectangle 5506" width="55" height="32" transform="translate(168 64)" fill="#5e55a5"/>
      <rect id="Rectangle_5507-12" data-name="Rectangle 5507" width="56" height="32" transform="translate(112 64)" fill="#fff"/>
      <rect id="Rectangle_5508-12" data-name="Rectangle 5508" width="56" height="32" transform="translate(56 64)" fill="#5e55a5"/>
      <rect id="Rectangle_5509-12" data-name="Rectangle 5509" width="56" height="32" transform="translate(0 64)" fill="#fff"/>
      <rect id="Rectangle_5510-12" data-name="Rectangle 5510" width="55" height="32" transform="translate(168 96)" fill="#fff"/>
      <rect id="Rectangle_5511-12" data-name="Rectangle 5511" width="56" height="32" transform="translate(112 96)" fill="#5e55a5"/>
      <rect id="Rectangle_5512-12" data-name="Rectangle 5512" width="56" height="32" transform="translate(56 96)" fill="#fff"/>
      <rect id="Rectangle_5513-12" data-name="Rectangle 5513" width="56" height="32" transform="translate(0 96)" fill="#5e55a5"/>
    </g>
  </g>
</svg>
